<svg width="165" height="30" viewBox="0 0 165 30" fill="none" xmlns="http://www.w3.org/2000/svg">
<path d="M52.8819 26.8012C50.5069 26.8012 48.4074 26.3347 46.5834 25.4018C44.7594 24.4473 43.3492 23.1006 42.3525 21.3616C41.3558 19.6226 40.8574 17.5761 40.8574 15.222C40.8574 12.868 41.3558 10.8214 42.3525 9.08244C43.3492 7.32217 44.7594 5.97552 46.5834 5.04238C48.4074 4.08804 50.5069 3.61084 52.8819 3.61084C54.4938 3.61084 55.9148 3.78053 57.1447 4.11985C58.3962 4.43797 59.5413 4.94693 60.5802 5.6468V10.2594C59.6473 9.49595 58.5764 8.94457 57.3676 8.60524C56.1799 8.2447 54.8228 8.06446 53.2958 8.06446C51.8748 8.06446 50.5914 8.36136 49.4464 8.95517C48.3225 9.52777 47.4318 10.3549 46.7744 11.4365C46.117 12.518 45.788 13.7799 45.788 15.222C45.788 16.6853 46.085 17.9684 46.6787 19.0712C47.2939 20.1528 48.1526 20.9905 49.2554 21.5843C50.3582 22.1781 51.6308 22.475 53.0729 22.475C54.3878 22.475 55.5328 22.2417 56.5084 21.7751V17.4806H52.9138V13.9178H61.1846V24.6383C59.0851 26.0804 56.3179 26.8012 52.8819 26.8012Z" fill="white"/>
<path d="M62.3018 11.0544H66.9461V13.2494C67.5613 12.5071 68.42 11.9451 69.5228 11.5634C70.6256 11.1604 71.8771 10.959 73.2765 10.959V14.6173C71.8133 14.6173 70.5195 14.84 69.3957 15.2853C68.2929 15.7307 67.5294 16.4093 67.1052 17.3212V26.3241H62.3018V11.0544Z" fill="white"/>
<path d="M82.5076 26.8012C79.5808 26.8012 77.2795 26.1016 75.6042 24.7017C73.9289 23.281 73.0913 21.2981 73.0913 18.7531C73.0913 16.2294 73.8337 14.2359 75.318 12.7726C76.8238 11.3093 78.9656 10.5776 81.7441 10.5776C83.5677 10.5776 85.1158 10.917 86.3884 11.5956C87.6606 12.2742 88.6259 13.218 89.2833 14.4268C89.9408 15.6144 90.2693 16.9611 90.2693 18.4668V20.4074H77.6723C78.0116 22.3585 79.8351 23.334 83.1435 23.334C84.1191 23.334 85.1266 23.2492 86.1655 23.0795C87.205 22.9099 88.1064 22.6765 88.8699 22.3796V25.7515C88.1275 26.0697 87.173 26.3245 86.0065 26.515C84.8403 26.706 83.6737 26.8012 82.5076 26.8012ZM85.7202 17.2898C85.6568 16.2719 85.2749 15.4872 84.5752 14.9358C83.8755 14.3632 82.9102 14.0769 81.6803 14.0769C80.4715 14.0769 79.517 14.3632 78.8173 14.9358C78.1176 15.5084 77.7356 16.2931 77.6723 17.2898H85.7202Z" fill="white"/>
<path d="M100.116 26.8012C97.1897 26.8012 94.8884 26.1016 93.2131 24.7017C91.5378 23.281 90.6997 21.2981 90.6997 18.7531C90.6997 16.2294 91.4421 14.2359 92.9268 12.7726C94.4323 11.3093 96.5744 10.5776 99.3525 10.5776C101.177 10.5776 102.725 10.917 103.997 11.5956C105.269 12.2742 106.234 13.218 106.892 14.4268C107.549 15.6144 107.878 16.9611 107.878 18.4668V20.4074H95.2807C95.62 22.3585 97.444 23.334 100.752 23.334C101.728 23.334 102.735 23.2492 103.774 23.0795C104.813 22.9099 105.715 22.6765 106.478 22.3796V25.7515C105.736 26.0697 104.782 26.3245 103.615 26.515C102.449 26.706 101.283 26.8012 100.116 26.8012ZM103.329 17.2898C103.265 16.2719 102.884 15.4872 102.184 14.9358C101.484 14.3632 100.519 14.0769 99.2891 14.0769C98.0803 14.0769 97.1258 14.3632 96.4262 14.9358C95.726 15.5084 95.3445 16.2931 95.2807 17.2898H103.329Z" fill="white"/>
<path d="M108.944 11.0548H113.589V12.9317C114.289 12.147 115.116 11.5638 116.07 11.182C117.046 10.7791 118.064 10.5776 119.124 10.5776C121.203 10.5776 122.751 11.1396 123.768 12.2636C124.807 13.3664 125.327 14.8616 125.327 16.749V26.3245H120.523V17.2898C120.523 15.3175 119.612 14.3314 117.788 14.3314C116.982 14.3314 116.229 14.5328 115.529 14.9358C114.829 15.3175 114.236 15.8902 113.748 16.6536V26.3245H108.944V11.0548Z" fill="white"/>
<path d="M129.565 8.70031C128.823 8.70031 128.197 8.45643 127.688 7.96863C127.179 7.48087 126.925 6.86585 126.925 6.12357C126.925 5.40254 127.179 4.79813 127.688 4.31032C128.197 3.80136 128.823 3.54688 129.565 3.54688C130.307 3.54688 130.933 3.80136 131.442 4.31032C131.951 4.79813 132.205 5.40254 132.205 6.12357C132.205 6.86585 131.951 7.48087 131.442 7.96863C130.933 8.45643 130.307 8.70031 129.565 8.70031ZM127.147 11.0543H131.983V26.324H127.147V11.0543Z" fill="white"/>
<path d="M140.175 26.8012C139.03 26.8012 137.8 26.6741 136.485 26.4197C135.191 26.1865 134.173 25.8472 133.431 25.4019V21.648C134.279 22.157 135.297 22.5705 136.485 22.8886C137.673 23.2068 138.776 23.3658 139.793 23.3658C140.663 23.3658 141.299 23.2916 141.702 23.1431C142.105 22.9946 142.306 22.719 142.306 22.316C142.306 21.9979 142.19 21.7434 141.957 21.5525C141.723 21.3405 141.363 21.1602 140.875 21.0118C140.409 20.8421 139.624 20.5982 138.521 20.2801C137.227 19.8984 136.209 19.5166 135.467 19.1349C134.746 18.7319 134.195 18.2336 133.813 17.6398C133.452 17.046 133.272 16.2825 133.272 15.3493C133.272 13.7587 133.898 12.5711 135.149 11.7865C136.421 10.9805 138.139 10.5776 140.303 10.5776C141.363 10.5776 142.455 10.6942 143.579 10.9276C144.724 11.1396 145.604 11.4259 146.219 11.7865V15.4448C145.604 15.0418 144.799 14.7131 143.801 14.4586C142.826 14.2041 141.872 14.0769 140.938 14.0769C140.069 14.0769 139.39 14.1617 138.903 14.3314C138.436 14.501 138.203 14.8191 138.203 15.2857C138.203 15.6886 138.425 15.9962 138.871 16.2083C139.337 16.4203 140.196 16.6854 141.448 17.0035L142.084 17.1626C143.42 17.5231 144.459 17.9261 145.201 18.3714C145.944 18.7956 146.463 19.3151 146.76 19.9302C147.078 20.524 147.237 21.2769 147.237 22.1888C147.237 23.5886 146.633 24.7125 145.424 25.561C144.215 26.3878 142.465 26.8012 140.175 26.8012Z" fill="white"/>
<path d="M148.348 2.81543H153.152V12.8042C153.873 12.0619 154.689 11.5106 155.601 11.15C156.513 10.7683 157.489 10.5774 158.528 10.5774C160.606 10.5774 162.154 11.1394 163.172 12.2634C164.211 13.3662 164.731 14.8613 164.731 16.7488V26.3243H159.928V17.2896C159.928 15.3173 159.016 14.3312 157.192 14.3312C156.386 14.3312 155.633 14.5326 154.933 14.9356C154.233 15.3173 153.64 15.8899 153.152 16.6534V26.3243H148.348V2.81543Z" fill="white"/>
<path fill-rule="evenodd" clip-rule="evenodd" d="M24.4531 7.31661C24.4531 11.3575 21.1775 14.6332 17.1367 14.6332C13.0958 14.6332 9.82002 11.3575 9.82002 7.31661C9.82002 3.27576 13.0958 0 17.1367 0C21.1775 0 24.4531 3.27576 24.4531 7.31661ZM0.117622 14.1015C8.0889 13.5642 15.0361 19.5323 15.6832 27.5206C15.7503 28.3484 15.747 29.1654 15.6786 29.9664C7.7073 30.5037 0.760095 24.5356 0.112977 16.5474C0.0459657 15.7196 0.0491563 14.9023 0.117622 14.1015ZM20.8361 29.6867C28.8243 29.0396 34.7924 22.0923 34.2551 14.1211C33.454 14.0526 32.6371 14.0494 31.8093 14.1165C23.821 14.7635 17.853 21.7107 18.3903 29.682C19.1911 29.7505 20.0084 29.7538 20.8361 29.6867Z" fill="white"/>
</svg>
