<svg width="143" height="38" viewBox="0 0 143 38" fill="none" xmlns="http://www.w3.org/2000/svg">
<rect x="15.4375" width="7.125" height="38" fill="white"/>
<rect x="38" y="15.4375" width="7.125" height="38" transform="rotate(90 38 15.4375)" fill="white"/>
<rect x="29.916" y="3.04639" width="7.125" height="38" transform="rotate(45 29.916 3.04639)" fill="white"/>
<rect x="34.9546" y="29.915" width="7.125" height="38" transform="rotate(135 34.9546 29.915)" fill="white"/>
<path d="M62.48 32.384C68.016 32.384 72.304 29.12 73.2 24.192H68.944C68.176 26.784 65.744 28.448 62.576 28.448C58.288 28.448 55.536 25.248 55.536 20.288C55.536 15.296 58.256 12.16 62.576 12.16C65.68 12.16 68.016 13.76 68.816 16.48H73.136C72.336 11.456 68.208 8.224 62.672 8.224C55.824 8.224 51.248 13.056 51.248 20.32C51.248 27.648 55.664 32.384 62.48 32.384ZM74.4093 24.064C74.4093 28.992 77.9613 32.384 82.8573 32.384C87.7533 32.384 91.3053 28.992 91.3053 24.064C91.3053 19.136 87.7533 15.744 82.8573 15.744C77.9613 15.744 74.4093 19.136 74.4093 24.064ZM78.3133 24.064C78.3133 21.184 80.1693 19.232 82.8573 19.232C85.5453 19.232 87.4013 21.184 87.4013 24.064C87.4013 26.944 85.5453 28.896 82.8573 28.896C80.1693 28.896 78.3133 26.944 78.3133 24.064ZM92.5118 24.064C92.5118 28.992 96.0638 32.384 100.96 32.384C105.856 32.384 109.408 28.992 109.408 24.064C109.408 19.136 105.856 15.744 100.96 15.744C96.0638 15.744 92.5118 19.136 92.5118 24.064ZM96.4158 24.064C96.4158 21.184 98.2718 19.232 100.96 19.232C103.648 19.232 105.504 21.184 105.504 24.064C105.504 26.944 103.648 28.896 100.96 28.896C98.2718 28.896 96.4158 26.944 96.4158 24.064ZM115.478 32V8.192H111.606V32H115.478ZM120.566 13.024C121.846 13.024 122.902 11.968 122.902 10.656C122.902 9.344 121.846 8.32 120.566 8.32C119.222 8.32 118.166 9.344 118.166 10.656C118.166 11.968 119.222 13.024 120.566 13.024ZM118.614 32H122.518V16.192H118.614V32ZM124.663 24.064C124.663 28.992 128.215 32.384 133.111 32.384C138.007 32.384 141.559 28.992 141.559 24.064C141.559 19.136 138.007 15.744 133.111 15.744C128.215 15.744 124.663 19.136 124.663 24.064ZM128.567 24.064C128.567 21.184 130.423 19.232 133.111 19.232C135.799 19.232 137.655 21.184 137.655 24.064C137.655 26.944 135.799 28.896 133.111 28.896C130.423 28.896 128.567 26.944 128.567 24.064Z" fill="white"/>
</svg>
