<svg width="121" height="38" viewBox="0 0 121 38" fill="none" xmlns="http://www.w3.org/2000/svg">
<g clip-path="url(#clip0_8451_8446)">
<path d="M64.9795 29.9043L56.757 19.5674L64.4565 10.4277H59.3719L52.5144 19.1294V10.4277H48.3887V29.9043H52.5144V23.9182L54.0257 22.1078L59.895 29.9043H64.9795Z" fill="white"/>
<path d="M74.6798 30.2548C80.5492 30.2548 84.8203 26.05 84.8203 20.1807C84.8203 14.3115 80.5492 10.1067 74.6798 10.1067C68.8395 10.1067 64.5684 14.3115 64.5684 20.1807C64.5684 26.05 68.8395 30.2548 74.6798 30.2548ZM74.6798 26.5756C71.1061 26.5756 68.8105 23.8016 68.8105 20.1807C68.8105 16.5307 71.1061 13.7859 74.6798 13.7859C78.254 13.7859 80.5782 16.5307 80.5782 20.1807C80.5782 23.8016 78.254 26.5756 74.6798 26.5756Z" fill="white"/>
<path d="M98.234 29.9043C101.924 29.9043 103.871 27.5683 103.871 24.6483C103.871 22.1954 102.215 20.1806 100.152 19.8594C101.982 19.4798 103.493 17.8446 103.493 15.3918C103.493 12.7929 101.605 10.4277 97.9143 10.4277H87.7158V29.9043H98.234ZM97.0139 18.2242H91.8416V13.9901H97.0139C98.4084 13.9901 99.2801 14.8954 99.2801 16.1218C99.2801 17.3482 98.4084 18.2242 97.0139 18.2242ZM97.1589 26.3127H91.8416V21.7866H97.1589C98.7861 21.7866 99.6578 22.8378 99.6578 24.0642C99.6578 25.4659 98.7281 26.3127 97.1589 26.3127Z" fill="white"/>
<path d="M120.697 29.9043V26.2543H111.108V21.845H120.494V18.195H111.108V14.0778H120.697V10.4277H106.982V29.9043H120.697Z" fill="white"/>
<path d="M36.7252 9.95528V5.26093H20.7385V0H15.6243V5.26093H0V9.95528H15.6646V14.2045H3.78527V33.1033H8.61755V18.8988H15.6646V38H20.6579V18.8988H28.3493V27.8019C28.3493 28.2471 28.148 28.4494 27.5037 28.4494C26.8594 28.4494 24.4835 28.4494 22.47 28.3685C23.1546 29.6635 23.8795 31.7274 24.0808 33.1033C27.2218 33.1033 29.5171 33.0224 31.2084 32.2939C32.8594 31.5655 33.3426 30.1896 33.3426 27.8828V14.2045H20.6579V9.95528H36.7252Z" fill="white"/>
</g>
<defs>
<clipPath id="clip0_8451_8446">
<rect width="121" height="38" fill="white"/>
</clipPath>
</defs>
</svg>
