<?xml version="1.0" encoding="utf-8"?>
<!-- Generator: Adobe Illustrator 28.0.0, SVG Export Plug-In . SVG Version: 6.00 Build 0)  -->
<svg version="1.1" id="Layer_1" xmlns="http://www.w3.org/2000/svg" xmlns:xlink="http://www.w3.org/1999/xlink" x="0px" y="0px"
	 viewBox="0 0 294 103" style="enable-background:new 0 0 294 103;" xml:space="preserve">
<style type="text/css">
	.st0{fill:#FFFFFF;}
</style>
<path class="st0" d="M49.6,9.6L41,17c-1.6-1.6-3.8-2.9-6.3-3.8c-2.5-0.9-5.2-1.3-7.8-1.3c-3.1,0-5.6,0.7-7.6,1.8
	c-2,1.1-3.1,2.9-3.1,4.9c0,2.5,1.1,4.3,3.1,5.2c2,0.9,5.4,1.6,9.9,2c15.5,1.3,23.3,7.8,23.3,19.7c0,4.3-1.3,7.8-3.8,11
	c-2.5,3.1-5.6,5.2-9.4,6.5c-3.8,1.3-7.8,2-12.6,2c-5.6,0-10.8-0.9-15.7-3.1c-4.9-2.2-8.5-5.2-11-9.4l8.1-8.5
	c2.2,2.9,4.9,4.9,8.5,6.5c3.4,1.3,6.7,2.2,10.1,2.2c3.6,0,6.5-0.7,8.7-2c2.2-1.3,3.4-3.1,3.4-5.2c0-2.5-0.9-4.5-2.9-5.6
	c-2-1.3-5.2-2-9.4-2.5c-3.6-0.4-6.7-0.9-9.4-1.6c-2.5-0.7-5.2-1.6-7.4-2.9c-2.2-1.3-4.3-3.1-5.6-5.6c-1.3-2.5-1.8-5.4-1.8-8.7
	c0-5.8,2.5-10.3,7.2-13.7C14.1,1.6,19.7,0,26.5,0c4.9,0,9.2,0.7,12.8,2S46.4,6.1,49.6,9.6z"/>
<path class="st0" d="M132.3,9.6c6.1,5.8,9,13.5,9,23.3s-2.9,17.5-9,23.3c-6.1,5.8-13.9,8.5-23.8,8.5c-9.9,0-17.7-2.9-23.8-8.5
	c-6.1-5.8-9-13.5-9-23.3s2.9-17.5,9-23.3c6.1-5.8,13.9-8.5,23.8-8.5C118.4,0.9,126.2,3.8,132.3,9.6z M128,32.7
	c0-5.6-1.8-10.3-5.4-14.1c-3.6-3.8-8.3-5.6-14.1-5.6s-10.3,1.8-14.1,5.6c-3.6,3.8-5.4,8.5-5.4,14.1c0,5.8,1.8,10.5,5.4,14.1
	c3.6,3.6,8.3,5.6,14.1,5.6s10.5-1.8,14.1-5.6C126.2,43.3,128,38.6,128,32.7z"/>
<path class="st0" d="M168.8,2.5h13.5v48.4h30.3v12.3h-44V2.5H168.8z"/>
<path class="st0" d="M238.1,2.5H263c6.7,0,12.3,1.3,17,4.3c4.7,2.9,8.1,6.5,10.1,10.8c2,4.5,3.1,9.4,3.1,14.8c0,4-0.7,7.8-1.8,11.4
	c-1.1,3.6-2.9,6.9-5.4,9.9c-2.2,2.9-5.6,5.2-9.4,6.9c-4,1.8-8.5,2.5-13.7,2.5h-24.9V2.5z M251.6,14.6v36.1H263
	c3.1,0,5.8-0.4,8.1-1.6c2.2-1.1,4-2.5,5.2-4.5c1.1-2,2-3.8,2.7-5.8c0.4-2,0.9-4.3,0.9-6.7c0-4.9-1.3-9.2-4-12.6
	c-2.7-3.4-7-4.9-12.8-4.9H251.6z"/>
<path class="st0" d="M27.6,88.3h5.2c1.1,0,2,0.2,2.9,0.7c0.9,0.4,1.6,0.9,2,1.6c0.4,0.7,0.9,1.3,1.1,2c0.2,0.7,0.4,1.6,0.4,2.5
	c0,0.9,0,1.8-0.4,2.5c-0.4,0.7-0.7,1.6-1.1,2.2c-0.4,0.7-1.3,1.1-2.2,1.6c-0.9,0.4-2,0.7-3.1,0.7h-5.2V88.3H27.6z M29.8,90.6v9.2
	h2.9c1.6,0,2.7-0.4,3.6-1.3c0.9-0.9,1.1-2,1.1-3.4c0-0.9-0.2-1.6-0.4-2.2c-0.2-0.7-0.9-1.1-1.6-1.6c-0.7-0.4-1.6-0.7-2.7-0.7H29.8z"
	/>
<path class="st0" d="M50,102h-2.2V88.6H50V102z"/>
<path class="st0" d="M70.4,90.1l-1.3,1.3c-0.4-0.4-1.1-0.9-1.8-1.1c-0.7-0.2-1.3-0.4-2-0.4c-1.6,0-2.7,0.4-3.6,1.6
	c-0.9,0.9-1.3,2.2-1.3,3.8c0,1.3,0.4,2.5,1.3,3.4c0.9,0.9,2,1.3,3.8,1.3c1.3,0,2.2-0.4,3.4-1.1v-2.7H65v-2h5.8v5.6
	c-1.3,1.6-3.1,2.2-5.4,2.2c-1.1,0-2.2-0.2-3.1-0.7c-0.9-0.4-1.6-0.9-2.2-1.6c-0.4-0.7-0.9-1.3-1.3-2.2c-0.4-0.9-0.4-1.6-0.4-2.7
	c0-2,0.7-3.8,1.8-5.2c1.3-1.3,2.9-2,5.2-2C67.5,88.1,69.1,88.8,70.4,90.1z"/>
<path class="st0" d="M81.4,102h-2.2V88.6h2.2V102z"/>
<path class="st0" d="M93.7,102V90.3h-4.5v-2h11v2h-4.5V102H93.7z"/>
<path class="st0" d="M117.5,102l-1.3-2.9h-7.4l-1.3,2.9h-2.2l6.1-13.5h2.2l6.1,13.5H117.5z M115.5,97.1l-2.9-6.5l-2.9,6.5H115.5z"/>
<path class="st0" d="M127.6,88.3h2.2v11.4h7.2v2.2h-9.2V88.3H127.6z"/>
<path class="st0" d="M154.7,102c-0.4-0.2-0.7-0.7-0.7-1.1c0-0.4,0.2-0.9,0.7-1.1c0.4-0.2,0.9-0.2,1.1,0s0.7,0.7,0.7,1.1
	c0,0.4-0.2,0.9-0.7,1.1C155.6,102.2,155.2,102.2,154.7,102z"/>
<path class="st0" d="M175.8,88.3h6.3c1.3,0,2.5,0.2,3.4,0.9c0.9,0.7,1.3,1.6,1.3,2.9c0,1.3-0.7,2.2-1.8,2.7c0.7,0.2,1.3,0.7,1.8,1.3
	c0.4,0.7,0.7,1.3,0.7,1.8c0,0.9-0.2,1.8-0.7,2.2c-0.4,0.7-1.1,0.9-1.8,1.1c-0.7,0.2-1.6,0.2-2.5,0.2h-6.3V88.3H175.8z M177.8,90.3
	v3.6h4c0.9,0,1.3-0.2,1.8-0.4c0.4-0.2,0.7-0.7,0.7-1.3c0-0.4-0.2-0.9-0.7-1.3c-0.4-0.4-1.1-0.7-1.8-0.7h-4V90.3z M177.8,96v4h4
	c0.7,0,1.3-0.2,2-0.4c0.7-0.2,0.9-0.7,0.9-1.3s-0.2-1.1-0.9-1.6c-0.7-0.4-1.3-0.4-2-0.4h-4V96z"/>
<path class="st0" d="M206.7,101.6l0.2,0.4h-2.5l-4-4.7h-2.9v4.7h-2.2V88.6c0.7,0,1.8,0,3.1,0c1.3,0,2.5,0,3.1,0
	c1.6,0,2.7,0.4,3.6,1.3c0.9,0.9,1.3,2,1.3,3.1c0,1.1-0.2,2-0.9,2.7c-0.7,0.7-1.6,1.3-2.7,1.3L206.7,101.6z M201.6,90.3h-4v4.9h4
	c0.9,0,1.6-0.2,2-0.7c0.4-0.4,0.7-1.1,0.7-1.8c0-0.7-0.2-1.3-0.7-1.8C203.2,90.6,202.5,90.3,201.6,90.3z"/>
<path class="st0" d="M225.8,102l-1.3-2.9h-7.4l-1.3,2.9h-2.2l6.1-13.5h2.2l6.1,13.5H225.8z M223.6,97.1l-2.9-6.5l-2.9,6.5H223.6z"/>
<path class="st0" d="M237.2,88.3l7.6,9.6v-9.6h2.2v13.5h-1.6l-7.6-9.6v9.9h-2.2V88.6h1.6V88.3z"/>
<path class="st0" d="M256.3,88.3h5.2c1.1,0,2,0.2,2.9,0.7c0.9,0.4,1.6,0.9,2,1.6c0.4,0.7,0.9,1.3,1.1,2c0.2,0.7,0.4,1.6,0.4,2.5
	c0,0.9,0,1.8-0.4,2.5c-0.4,0.7-0.7,1.6-1.1,2.2c-0.4,0.7-1.3,1.1-2.2,1.6c-0.9,0.4-2,0.7-3.1,0.7h-5.2V88.3H256.3z M258.5,90.6v9.2
	h2.9c1.6,0,2.7-0.4,3.6-1.3c0.7-0.9,1.1-2,1.1-3.4c0-0.9-0.2-1.6-0.4-2.2c-0.2-0.7-0.9-1.1-1.6-1.6c-0.7-0.4-1.6-0.7-2.7-0.7H258.5z
	"/>
</svg>
