<svg width="123" height="26" viewBox="0 0 123 26" fill="none" xmlns="http://www.w3.org/2000/svg">
<g clip-path="url(#clip0_8451_8436)">
<path d="M119.617 26C118.626 26 117.81 25.7214 117.172 25.1644C116.554 24.5859 116.246 23.8788 116.246 23.0432C116.246 22.1862 116.554 21.4685 117.172 20.89C117.81 20.3115 118.626 20.0222 119.617 20.0222C120.587 20.0222 121.38 20.3115 121.997 20.89C122.636 21.4685 122.956 22.1862 122.956 23.0432C122.956 23.8788 122.636 24.5859 121.997 25.1644C121.38 25.7214 120.587 26 119.617 26Z" fill="white"/>
<path d="M93.416 16.744C93.416 14.9014 93.7687 13.2838 94.4737 11.8912C95.201 10.4985 96.1814 9.42721 97.4153 8.67731C98.6495 7.92741 100.027 7.55249 101.547 7.55249C102.847 7.55249 103.982 7.80957 104.951 8.32379C105.943 8.83802 106.703 9.51292 107.232 10.3485V7.80957H112.884V25.7428H107.232V23.2039C106.681 24.0394 105.91 24.7144 104.918 25.2286C103.949 25.7428 102.814 25.9999 101.514 25.9999C100.016 25.9999 98.6495 25.6249 97.4153 24.875C96.1814 24.1037 95.201 23.0217 94.4737 21.6291C93.7687 20.215 93.416 18.5866 93.416 16.744ZM107.232 16.7762C107.232 15.405 106.835 14.3229 106.042 13.5302C105.271 12.7375 104.323 12.3411 103.2 12.3411C102.076 12.3411 101.117 12.7375 100.324 13.5302C99.5526 14.3015 99.167 15.3728 99.167 16.744C99.167 18.1153 99.5526 19.208 100.324 20.0221C101.117 20.8149 102.076 21.2113 103.2 21.2113C104.323 21.2113 105.271 20.8149 106.042 20.0221C106.835 19.2294 107.232 18.1474 107.232 16.7762Z" fill="white"/>
<path d="M90.4441 1.96021V25.7426H84.792V1.96021H90.4441Z" fill="white"/>
<path d="M77.8868 5.94559C76.8951 5.94559 76.0799 5.66708 75.4411 5.11001C74.824 4.53151 74.5156 3.82446 74.5156 2.98887C74.5156 2.13184 74.824 1.4248 75.4411 0.867736C76.0799 0.289244 76.8951 0 77.8868 0C78.8563 0 79.6495 0.289244 80.2666 0.867736C80.9057 1.4248 81.2251 2.13184 81.2251 2.98887C81.2251 3.82446 80.9057 4.53151 80.2666 5.11001C79.6495 5.66708 78.8563 5.94559 77.8868 5.94559ZM80.6962 7.80962V25.7428H75.0445V7.80962H80.6962Z" fill="white"/>
<path d="M64.0113 7.6167C66.1706 7.6167 67.8894 8.30232 69.1675 9.67356C70.4673 11.0234 71.1174 12.8874 71.1174 15.2656V25.7427H65.4986V16.0048C65.4986 14.805 65.1792 13.873 64.5401 13.2088C63.9011 12.5446 63.0419 12.2125 61.9619 12.2125C60.8822 12.2125 60.023 12.5446 59.3839 13.2088C58.7449 13.873 58.4255 14.805 58.4255 16.0048V25.7427H52.7734V7.80953H58.4255V10.1878C58.9983 9.39504 59.7696 8.7737 60.739 8.32375C61.7088 7.85237 62.7994 7.6167 64.0113 7.6167Z" fill="white"/>
<path d="M29.2168 16.744C29.2168 14.9014 29.5694 13.2838 30.2745 11.8912C31.0015 10.4985 31.9823 9.42721 33.2161 8.67731C34.45 7.92741 35.8271 7.55249 37.3476 7.55249C38.6477 7.55249 39.7824 7.80957 40.7518 8.32379C41.7435 8.83802 42.5038 9.51292 43.0327 10.3485V7.80957H48.6844V25.7428H43.0327V23.2039C42.4815 24.0394 41.7106 24.7144 40.7188 25.2286C39.7494 25.7428 38.6145 25.9999 37.3147 25.9999C35.8161 25.9999 34.45 25.6249 33.2161 24.875C31.9823 24.1037 31.0015 23.0217 30.2745 21.6291C29.5694 20.215 29.2168 18.5866 29.2168 16.744ZM43.0327 16.7762C43.0327 15.405 42.636 14.3229 41.8428 13.5302C41.0715 12.7375 40.124 12.3411 39.0001 12.3411C37.8765 12.3411 36.918 12.7375 36.1248 13.5302C35.3535 14.3015 34.9678 15.3728 34.9678 16.744C34.9678 18.1153 35.3535 19.208 36.1248 20.0221C36.918 20.8149 37.8765 21.2113 39.0001 21.2113C40.124 21.2113 41.0715 20.8149 41.8428 20.0221C42.636 19.2294 43.0327 18.1474 43.0327 16.7762Z" fill="white"/>
<path d="M26.2763 3.18115V25.7423H20.6244V12.212L15.4353 25.7423H10.8741L5.65188 12.1799V25.7423H0V3.18115H6.67649L13.1877 18.8004L19.6329 3.18115H26.2763Z" fill="white"/>
</g>
<defs>
<clipPath id="clip0_8451_8436">
<rect width="123" height="26" fill="white"/>
</clipPath>
</defs>
</svg>
