<svg width="136" height="24" viewBox="0 0 136 24" fill="none" xmlns="http://www.w3.org/2000/svg">
<g clip-path="url(#clip0_8451_8454)">
<path d="M5.58532 23.7186H0V4.86719H7.57585L11.2301 12.6891L13.1909 17.5567H13.5771L15.4488 12.6891L18.9248 4.86719H26.5006V23.7186H20.9153V15.9248L21.1232 12.7735H20.737L19.6081 15.9248L16.6372 22.5931H9.86346L6.89255 15.9248L5.76358 12.7735H5.37738L5.58532 15.9248V23.7186Z" fill="white"/>
<path d="M76.9432 23.7187H73.0217C71.1597 23.7187 69.6941 23.2779 68.6246 22.3963C67.5749 21.5147 67.0501 20.1548 67.0501 18.3165V7.09009H72.6354V17.5568C72.6354 18.1196 72.7443 18.4947 72.9623 18.6823C73.1999 18.8699 73.6355 18.9637 74.2693 18.9637H76.9432V23.7187ZM76.9432 13.871H64.8516V9.53795H76.9432V13.871Z" fill="white"/>
<path d="M83.8626 23.7187H78.2773V9.53795H83.5062V13.5896L83.8626 13.7303V23.7187ZM83.8626 15.2496H82.8228V13.252H83.8032C83.9418 12.4641 84.2093 11.7701 84.6054 11.1699C85.0016 10.5696 85.5363 10.1007 86.2096 9.76305C86.9028 9.42542 87.7447 9.25659 88.735 9.25659C89.8441 9.25659 90.7353 9.4723 91.4088 9.90374C92.0823 10.3164 92.5675 10.8885 92.8645 11.6201C93.1813 12.3516 93.3398 13.1957 93.3398 14.1523V16.966H87.7545V15.3059C87.7545 14.7057 87.616 14.293 87.3387 14.0679C87.0613 13.8241 86.5562 13.7021 85.8235 13.7021C85.0709 13.7021 84.5559 13.8241 84.2785 14.0679C84.0012 14.293 83.8626 14.6869 83.8626 15.2496Z" fill="white"/>
<path d="M102.872 24.0001C101.188 24.0001 99.693 23.7562 98.386 23.2685C97.0786 22.7808 96.0588 21.993 95.3258 20.905C94.5932 19.8171 94.2266 18.3916 94.2266 16.6283C94.2266 15.0902 94.5932 13.7772 95.3258 12.6892C96.0588 11.5825 97.0589 10.7385 98.3265 10.157C99.6139 9.55673 101.089 9.25659 102.753 9.25659C104.476 9.25659 105.972 9.52859 107.239 10.0725C108.507 10.5978 109.487 11.3856 110.181 12.436C110.874 13.4677 111.22 14.7432 111.22 16.2626C111.22 16.5064 111.211 16.7315 111.191 16.9378C111.191 17.1254 111.171 17.3505 111.131 17.6131H97.8808V14.9401H107.091L105.873 16.6002C105.873 16.4314 105.873 16.2719 105.873 16.1219C105.873 15.953 105.873 15.7842 105.873 15.6154C105.873 14.7526 105.635 14.1523 105.16 13.8147C104.704 13.477 103.862 13.3082 102.634 13.3082C101.367 13.3082 100.505 13.4958 100.05 13.871C99.6139 14.2461 99.396 14.9214 99.396 15.8968V17.2473C99.396 18.2415 99.6238 18.9168 100.079 19.2732C100.535 19.6296 101.397 19.8077 102.664 19.8077C103.793 19.8077 104.546 19.714 104.922 19.5264C105.318 19.32 105.516 19.0105 105.516 18.5979V18.2884H111.102V18.626C111.102 19.6764 110.765 20.6049 110.091 21.4115C109.418 22.2181 108.467 22.8558 107.239 23.3248C106.011 23.775 104.556 24.0001 102.872 24.0001Z" fill="white"/>
<path d="M128.728 23.7187H123.5V20.5674H123.202V15.531C123.202 14.8182 123.005 14.368 122.608 14.1805C122.232 13.9741 121.549 13.871 120.558 13.871C119.647 13.871 119.014 13.9741 118.657 14.1805C118.32 14.3868 118.152 14.7901 118.152 15.3903V15.5029H112.567V15.4466C112.567 14.1898 112.913 13.1019 113.606 12.1828C114.3 11.2449 115.28 10.5227 116.548 10.0163C117.815 9.50982 119.291 9.25659 120.974 9.25659C122.717 9.25659 124.163 9.51921 125.312 10.0444C126.461 10.5509 127.312 11.2824 127.867 12.239C128.441 13.1769 128.728 14.3118 128.728 15.6436V23.7187ZM117.558 24.0001C115.874 24.0001 114.567 23.653 113.636 22.959C112.725 22.265 112.27 21.3177 112.27 20.1172C112.27 19.442 112.438 18.8417 112.775 18.3165C113.111 17.7913 113.636 17.3693 114.349 17.0504C115.062 16.7127 115.983 16.4876 117.112 16.3751L123.5 15.7842V18.7104L118.598 19.245C118.34 19.2638 118.152 19.32 118.033 19.4138C117.934 19.5076 117.885 19.6296 117.885 19.7796C117.885 20.0047 117.993 20.1548 118.211 20.2298C118.449 20.2861 118.786 20.3142 119.222 20.3142C120.212 20.3142 120.994 20.2673 121.569 20.1735C122.143 20.061 122.559 19.864 122.816 19.5826C123.074 19.3013 123.202 18.898 123.202 18.3728L123.618 18.2602V20.7362H123.202C122.925 21.7304 122.321 22.5276 121.39 23.1278C120.459 23.7093 119.182 24.0001 117.558 24.0001Z" fill="white"/>
<path d="M135.969 23.7186H130.384V4.86719H135.969V23.7186Z" fill="white"/>
<path fill-rule="evenodd" clip-rule="evenodd" d="M45.9601 7.65309C45.9601 11.8798 42.3951 14.8279 37.3741 14.8279C32.3533 14.8279 28.2832 12.4363 28.2832 7.65309C28.2832 3.02261 31.8482 0 36.8692 0C41.89 0 45.9601 2.52313 45.9601 7.65309ZM41.3983 7.52968C41.3983 9.57485 40.9095 11.0014 37.2437 11.0014C33.5782 11.0014 32.845 9.84413 32.845 7.52968C32.845 5.28912 33.5942 3.82656 36.9993 3.82656C40.4044 3.82656 41.3983 5.26152 41.3983 7.52968ZM58.5065 23.719H64.092V14.631C64.092 13.5993 63.8741 12.6802 63.4382 11.8736C63.0223 11.0671 62.3688 10.4293 61.4776 9.96037C60.6061 9.49141 59.4968 9.25696 58.15 9.25696C56.8229 9.25696 55.7338 9.48205 54.882 9.93224C54.0503 10.3637 53.4165 10.9264 52.9806 11.6204C52.5647 12.3145 52.2975 13.0554 52.1784 13.8432H51.8813V8.58168H46.6525V23.719H52.2381V16.4036C52.2381 15.4845 52.436 14.8561 52.8322 14.5185C53.2481 14.1621 54.07 13.9839 55.2979 13.9839C56.5259 13.9839 57.3678 14.1714 57.8234 14.5466C58.2789 14.903 58.5065 15.5783 58.5065 16.5724V23.719Z" fill="white"/>
</g>
<defs>
<clipPath id="clip0_8451_8454">
<rect width="136" height="24" fill="white"/>
</clipPath>
</defs>
</svg>
