<?xml version="1.0" encoding="UTF-8"?>
<svg id="Layer_2" data-name="Layer 2" xmlns="http://www.w3.org/2000/svg" xmlns:xlink="http://www.w3.org/1999/xlink" viewBox="0 0 291.3 100.16">
  <defs>
    <style>
      .cls-1 {
        fill: #fff;
      }

      .cls-1, .cls-2, .cls-3 {
        stroke-width: 0px;
      }

      .cls-2 {
        fill: url(#radial-gradient-2);
      }

      .cls-3 {
        fill: url(#radial-gradient);
      }
    </style>
    <radialGradient id="radial-gradient" cx="-3.91" cy="-72.11" fx="-3.91" fy="-72.11" r="87.23" gradientTransform="translate(66.89 94.83) scale(.83)" gradientUnits="userSpaceOnUse">
      <stop offset="0" stop-color="#fff"/>
      <stop offset="0" stop-color="#fff"/>
      <stop offset=".28" stop-color="#fff"/>
      <stop offset=".32" stop-color="#f9fbfd"/>
      <stop offset=".37" stop-color="#e9f2f8"/>
      <stop offset=".42" stop-color="#cfe2f1"/>
      <stop offset=".48" stop-color="#abcce6"/>
      <stop offset=".55" stop-color="#7db0d8"/>
      <stop offset=".61" stop-color="#458ec8"/>
      <stop offset=".65" stop-color="#1c75bc"/>
      <stop offset=".89" stop-color="#2b3990"/>
      <stop offset="1" stop-color="#262262"/>
    </radialGradient>
    <radialGradient id="radial-gradient-2" cx="867.28" cy="-165.54" fx="867.28" fy="-165.54" r="107.68" gradientTransform="translate(-610.19 135.19) rotate(1.38) scale(.78)" gradientUnits="userSpaceOnUse">
      <stop offset=".05" stop-color="#fff"/>
      <stop offset=".06" stop-color="#fff"/>
      <stop offset=".28" stop-color="#fff"/>
      <stop offset=".32" stop-color="#f9fbfd"/>
      <stop offset=".37" stop-color="#e9f2f8"/>
      <stop offset=".42" stop-color="#cfe2f1"/>
      <stop offset=".48" stop-color="#abcce6"/>
      <stop offset=".55" stop-color="#7db0d8"/>
      <stop offset=".61" stop-color="#458ec8"/>
      <stop offset=".65" stop-color="#1c75bc"/>
      <stop offset=".89" stop-color="#2e3192"/>
      <stop offset="1" stop-color="#1c75bc"/>
    </radialGradient>
  </defs>
  <g id="Artboard_-_Light" data-name="Artboard - Light">
    <g id="otot_-_2023___PATH" data-name="otot - 2023 __PATH">
      <g>
        <path class="cls-1" d="m138.06,13.39c14.59,0,25.53,10.56,25.53,25.05s-10.94,25.05-25.53,25.05-25.53-10.56-25.53-25.05,10.94-25.05,25.53-25.05Zm0,7.97c-9.79,0-16.89,7.39-16.89,17.09s7.1,17.09,16.89,17.09,16.9-7.39,16.9-17.09-7.1-17.09-16.9-17.09Z"/>
        <path class="cls-1" d="m177.55,31.44h-17.9c-.6,0-1.1-.5-1.1-1.1v-5.8c0-.6.5-1.1,1.1-1.1h17.9V5.44c0-.6.5-1.1,1.1-1.1h6c.6,0,1.1.5,1.1,1.1v18h17.9c.6,0,1.1.5,1.1,1.1v5.8c0,.6-.5,1.1-1.1,1.1h-17.9v18c0,.6-.5,1.1-1.1,1.1h-6c-.6,0-1.1-.5-1.1-1.1v-18Z"/>
        <path class="cls-1" d="m224.6,13.39c14.59,0,25.53,10.56,25.53,25.05s-10.94,25.05-25.53,25.05-25.53-10.56-25.53-25.05,10.94-25.05,25.53-25.05Zm0,7.97c-9.79,0-16.89,7.39-16.89,17.09s7.1,17.09,16.89,17.09,16.9-7.39,16.9-17.09-7.1-17.09-16.9-17.09Z"/>
        <path class="cls-1" d="m264.1,31.44h-17.9c-.6,0-1.1-.5-1.1-1.1v-5.8c0-.6.5-1.1,1.1-1.1h17.9V5.44c0-.6.5-1.1,1.1-1.1h6c.6,0,1.1.5,1.1,1.1v18h17.9c.6,0,1.1.5,1.1,1.1v5.8c0,.6-.5,1.1-1.1,1.1h-17.9v18c0,.6-.5,1.1-1.1,1.1h-6c-.6,0-1.1-.5-1.1-1.1v-18Z"/>
      </g>
      <g>
        <path class="cls-1" d="m123.61,97.98c-.21.45-.49.84-.84,1.16-.35.32-.76.57-1.24.75-.48.17-1.01.26-1.59.26-.47,0-.9-.06-1.3-.19-.4-.12-.75-.3-1.06-.53-.29-.22-.55-.48-.78-.79s-.42-.64-.57-1.01c-.15-.36-.27-.76-.34-1.2-.08-.43-.12-.89-.12-1.36v-1.55c0-.45.04-.88.11-1.29.07-.41.18-.8.33-1.16.16-.42.37-.8.63-1.13.26-.33.56-.62.89-.85.3-.21.64-.37,1.01-.48.37-.11.77-.17,1.2-.17.61,0,1.16.09,1.64.27.48.18.89.43,1.23.76.34.32.61.72.8,1.19.2.47.33,1,.38,1.58h-2.04c-.03-.34-.08-.64-.17-.9-.09-.26-.21-.49-.37-.67-.16-.18-.36-.32-.61-.41s-.53-.14-.87-.14c-.2,0-.39.03-.57.08-.17.05-.33.13-.46.23-.21.14-.39.32-.53.56-.15.24-.26.51-.34.82-.07.25-.12.51-.16.8-.03.29-.05.6-.05.92v1.56c0,.42.02.8.07,1.14s.12.65.22.92c.07.2.16.39.27.55.11.17.23.31.37.42.16.12.33.21.52.27.19.06.41.09.65.09.31,0,.58-.04.82-.12.24-.08.44-.21.61-.38.17-.17.3-.38.4-.63.1-.25.16-.55.19-.9h2.04c-.05.56-.17,1.07-.38,1.52Z"/>
        <path class="cls-1" d="m135.1,96.46c-.08.44-.21.84-.37,1.21-.17.38-.38.73-.62,1.04-.25.32-.54.58-.86.8-.3.2-.64.35-1,.46-.36.11-.76.16-1.19.16-.45,0-.86-.06-1.23-.18s-.72-.29-1.02-.51c-.3-.22-.56-.49-.8-.81-.23-.31-.43-.67-.59-1.06-.15-.36-.26-.76-.33-1.18-.07-.42-.11-.86-.12-1.32v-1.58c0-.48.05-.94.13-1.38.08-.44.2-.85.36-1.23.16-.36.35-.7.57-1,.23-.3.49-.56.79-.78.3-.21.63-.38,1-.5.37-.12.78-.18,1.22-.18s.86.06,1.24.18c.38.12.73.29,1.03.5.3.21.57.46.8.75.23.29.42.62.59.96.17.39.3.8.39,1.25.09.45.14.92.14,1.41v1.58c0,.47-.05.93-.13,1.36Zm-1.97-3.79c-.03-.27-.08-.53-.14-.77-.08-.28-.18-.54-.31-.77-.13-.23-.28-.42-.46-.58-.15-.12-.32-.21-.51-.29-.19-.07-.41-.11-.64-.11s-.44.03-.62.1c-.18.07-.34.16-.48.28-.18.16-.33.35-.46.58-.12.23-.22.49-.29.78-.06.24-.1.5-.12.77-.03.27-.04.55-.04.84v1.59c0,.28.01.55.04.81.02.26.06.51.12.75.06.28.15.53.27.77.11.24.25.43.41.58.15.14.32.25.51.33s.42.12.68.12.47-.04.66-.11c.2-.07.37-.18.52-.32.18-.16.33-.35.45-.58.12-.23.22-.49.29-.77.06-.23.11-.48.14-.75.03-.27.04-.54.04-.82v-1.59c0-.29-.01-.56-.04-.84Z"/>
        <path class="cls-1" d="m143.99,99.99l-3.42-7.58v7.58h-2.06v-11.38h2.05l3.41,7.55.02-7.55h2.05v11.38h-2.04Z"/>
        <path class="cls-1" d="m152,95.22v4.77h-2.05v-11.38h7.54v1.67h-5.49v3.27h4.84v1.66h-4.84Z"/>
        <path class="cls-1" d="m163.17,94.95v3.38h5.48v1.66h-7.52v-11.38h7.49v1.67h-5.45v3.03h4.69v1.63h-4.69Z"/>
        <path class="cls-1" d="m174.26,95.66v4.33h-2.04v-11.38h3.72c.61,0,1.16.07,1.66.22s.93.37,1.3.65c.36.28.64.64.83,1.06.2.43.29.92.29,1.49,0,.4-.05.76-.15,1.08-.1.32-.24.61-.41.86-.19.26-.41.49-.66.68-.25.19-.54.36-.85.5l2.44,4.73v.1h-2.18l-2.16-4.33h-1.8Zm1.7-1.66c.33,0,.63-.05.89-.14.26-.1.48-.24.66-.42.15-.15.27-.33.35-.55.08-.22.12-.46.12-.73,0-.31-.05-.59-.14-.83-.1-.24-.24-.44-.43-.6-.18-.15-.39-.26-.63-.34-.25-.08-.52-.12-.84-.12h-1.68v3.73h1.7Z"/>
        <path class="cls-1" d="m185.57,94.95v3.38h5.48v1.66h-7.52v-11.38h7.49v1.67h-5.45v3.03h4.69v1.63h-4.69Z"/>
        <path class="cls-1" d="m200,99.99l-3.42-7.58v7.58h-2.06v-11.38h2.05l3.41,7.55.02-7.55h2.05v11.38h-2.04Z"/>
        <path class="cls-1" d="m213.22,97.98c-.21.45-.49.84-.84,1.16-.35.32-.76.57-1.24.75-.48.17-1.01.26-1.59.26-.47,0-.9-.06-1.3-.19-.4-.12-.75-.3-1.06-.53-.29-.22-.55-.48-.78-.79s-.42-.64-.57-1.01c-.15-.36-.27-.76-.34-1.2-.08-.43-.12-.89-.12-1.36v-1.55c0-.45.04-.88.11-1.29.07-.41.18-.8.33-1.16.16-.42.37-.8.63-1.13.26-.33.56-.62.89-.85.3-.21.64-.37,1.01-.48.37-.11.77-.17,1.2-.17.61,0,1.16.09,1.64.27.48.18.89.43,1.23.76.34.32.61.72.8,1.19.2.47.33,1,.38,1.58h-2.04c-.03-.34-.08-.64-.17-.9-.09-.26-.21-.49-.37-.67-.16-.18-.36-.32-.61-.41s-.53-.14-.87-.14c-.2,0-.39.03-.57.08-.17.05-.33.13-.46.23-.21.14-.39.32-.53.56-.15.24-.26.51-.34.82-.07.25-.12.51-.16.8-.03.29-.05.6-.05.92v1.56c0,.42.02.8.07,1.14s.12.65.22.92c.07.2.16.39.27.55.11.17.23.31.37.42.16.12.33.21.52.27.19.06.41.09.65.09.31,0,.58-.04.82-.12.24-.08.44-.21.61-.38.17-.17.3-.38.4-.63.1-.25.16-.55.19-.9h2.04c-.05.56-.17,1.07-.38,1.52Z"/>
        <path class="cls-1" d="m219.17,94.95v3.38h5.48v1.66h-7.52v-11.38h7.49v1.67h-5.45v3.03h4.69v1.63h-4.69Z"/>
        <path class="cls-1" d="m239.13,99.99v-1.39l3.69-3.99c.3-.32.55-.62.75-.88.2-.26.37-.5.49-.72.12-.21.21-.42.27-.61.05-.19.08-.38.08-.56,0-.27-.04-.5-.11-.71-.08-.21-.18-.38-.32-.54-.15-.15-.32-.26-.52-.34-.2-.08-.42-.12-.66-.12-.31,0-.58.04-.82.13-.23.09-.43.21-.58.38-.16.17-.27.38-.36.63-.08.25-.12.53-.12.85h-2.03c0-.5.09-.97.28-1.42s.46-.83.8-1.17c.34-.34.75-.6,1.24-.8.49-.19,1.03-.29,1.63-.29.57,0,1.07.08,1.52.24.44.16.81.39,1.12.67.3.29.52.64.68,1.04.16.4.23.85.23,1.33,0,.37-.06.72-.18,1.06-.12.34-.28.67-.49,1.01-.21.33-.47.66-.76,1-.29.34-.62.69-.96,1.06l-2.34,2.48h5.15v1.62h-7.7Z"/>
        <path class="cls-1" d="m257.78,97.6c-.17.56-.41,1.03-.73,1.4-.32.38-.7.67-1.16.86-.46.2-.97.29-1.55.29s-1.08-.1-1.54-.29c-.46-.19-.85-.48-1.16-.87-.32-.38-.57-.84-.74-1.4-.17-.56-.26-1.21-.26-1.94v-2.7c0-.73.08-1.38.25-1.94.17-.56.42-1.03.74-1.41.32-.38.7-.66,1.16-.86.46-.2.97-.29,1.54-.29s1.1.1,1.55.29c.46.2.85.48,1.16.86.32.38.56.85.73,1.41.17.56.26,1.21.26,1.94v2.7c0,.73-.08,1.38-.25,1.94Zm-1.79-5.24c-.02-.42-.07-.77-.16-1.07-.09-.3-.21-.54-.37-.73-.13-.16-.29-.27-.48-.35-.19-.08-.41-.11-.66-.11-.27,0-.5.05-.7.14-.2.09-.37.23-.5.42-.16.2-.27.47-.34.8-.07.33-.11.71-.11,1.16v2.25l3.33-2.5Zm0,2.24v-.78l-3.33,2.48c.02.35.07.67.14.93.07.27.17.49.3.68.14.2.31.36.51.46.21.1.44.15.71.15s.5-.05.7-.14c.2-.09.37-.23.5-.42.16-.21.27-.49.35-.82.08-.33.11-.72.11-1.17v-1.38Z"/>
        <path class="cls-1" d="m261.54,99.99v-1.39l3.69-3.99c.3-.32.55-.62.75-.88.2-.26.37-.5.49-.72.12-.21.21-.42.27-.61.05-.19.08-.38.08-.56,0-.27-.04-.5-.11-.71-.08-.21-.18-.38-.32-.54-.15-.15-.32-.26-.52-.34-.2-.08-.42-.12-.66-.12-.31,0-.58.04-.82.13-.23.09-.43.21-.58.38-.16.17-.27.38-.36.63-.08.25-.12.53-.12.85h-2.03c0-.5.09-.97.28-1.42s.46-.83.8-1.17c.34-.34.75-.6,1.24-.8.49-.19,1.03-.29,1.63-.29.57,0,1.07.08,1.52.24.44.16.81.39,1.12.67.3.29.52.64.68,1.04.16.4.23.85.23,1.33,0,.37-.06.72-.18,1.06-.12.34-.28.67-.49,1.01-.21.33-.47.66-.76,1-.29.34-.62.69-.96,1.06l-2.34,2.48h5.15v1.62h-7.7Z"/>
        <path class="cls-1" d="m276.32,93.41c.32,0,.6-.04.84-.13.24-.09.43-.21.58-.38.14-.14.25-.31.32-.52.07-.21.11-.43.11-.67s-.04-.47-.11-.67c-.07-.2-.18-.37-.32-.51-.14-.14-.31-.25-.52-.32-.21-.07-.45-.11-.73-.11-.24,0-.46.03-.66.1-.2.07-.38.16-.52.29-.16.13-.28.29-.36.47-.09.18-.13.39-.13.62h-2.02c0-.46.09-.88.28-1.26.18-.38.44-.71.77-.99.33-.27.71-.48,1.16-.64.45-.15.93-.23,1.45-.23.55,0,1.06.07,1.52.21.46.14.85.34,1.18.61.33.28.58.62.76,1.02.18.4.27.87.27,1.39,0,.24-.04.48-.11.71-.07.24-.18.46-.32.68-.14.22-.32.42-.53.6-.21.18-.46.34-.74.47.33.11.61.26.85.44.24.18.43.38.58.61.15.23.25.49.32.75.07.27.11.55.11.84,0,.53-.1,1.01-.3,1.42-.2.42-.47.77-.82,1.05-.34.29-.76.5-1.23.65-.48.15-1,.22-1.55.22-.48,0-.95-.07-1.41-.2-.46-.14-.86-.34-1.21-.61-.35-.27-.64-.6-.84-1-.21-.4-.31-.87-.31-1.41h2.02c0,.23.04.45.13.64.09.2.21.36.38.5.16.15.34.26.57.34.22.08.46.12.73.12.29,0,.55-.04.79-.12.23-.08.43-.2.59-.36.16-.14.27-.32.36-.53.08-.21.12-.45.12-.72,0-.32-.05-.59-.14-.82-.1-.23-.23-.41-.4-.56-.18-.15-.4-.26-.65-.33s-.53-.11-.84-.11h-1.16v-1.58h1.16Z"/>
      </g>
      <circle class="cls-3" cx="40" cy="40" r="40"/>
      <circle class="cls-2" cx="40" cy="40" r="25" transform="translate(-2.34 77.51) rotate(-86.54)"/>
    </g>
  </g>
</svg>