<svg width="171" height="36" viewBox="0 0 171 36" fill="none" xmlns="http://www.w3.org/2000/svg">
<path d="M0.128906 24.0237L12.3017 18.606L19.3081 22.6693L20.7235 35.9999L12.0894 35.9284L13.3632 26.6612L11.877 25.8058L4.58751 31.509L0.128906 24.0237Z" fill="white" fill-opacity="0.3"/>
<path d="M20.0874 22.0981L30.8449 30.0109L35.0911 22.3833L26.4567 18.8902V17.1794L35.0911 13.615L30.8449 6.05859L20.0874 13.9715V22.0981Z" fill="white" fill-opacity="0.6"/>
<path d="M19.3081 13.3306L20.7235 0L12.0894 0.142532L13.3632 9.40986L11.877 10.2653L4.51675 4.56232L0.128906 11.9762L12.3017 17.394L19.3081 13.3306Z" fill="white"/>
<path d="M63.8959 16.4019V28.8907H68.5427V12.9749H61.7754V16.4019H63.8959Z" fill="white"/>
<path d="M63.7509 10.739C64.1769 11.1843 64.8255 11.4069 65.6967 11.4069C66.5684 11.4069 67.2069 11.1843 67.6133 10.739C68.0398 10.2741 68.2523 9.69321 68.2523 8.99638C68.2523 8.27984 68.0398 7.69896 67.6133 7.25371C67.2069 6.78908 66.5684 6.55664 65.6967 6.55664C64.8255 6.55664 64.1769 6.78908 63.7509 7.25371C63.3445 7.69896 63.1411 8.27984 63.1411 8.99638C63.1411 9.69321 63.3445 10.2741 63.7509 10.739Z" fill="white"/>
<path d="M47.7187 28.5424C49.0351 29.1425 50.6519 29.4428 52.5685 29.4428C54.3694 29.4428 55.918 29.1617 57.2157 28.6004C58.513 28.0391 59.5099 27.2547 60.207 26.2477C60.9237 25.2216 61.2816 24.0308 61.2816 22.6754C61.2816 21.3588 60.9434 20.2454 60.2655 19.3353C59.6068 18.406 58.6876 17.6799 57.506 17.1573C56.3249 16.615 54.96 16.2761 53.4109 16.1407L51.7846 15.9955C50.8164 15.9178 50.1194 15.6566 49.6933 15.2112C49.2673 14.7659 49.0543 14.243 49.0543 13.643C49.0543 13.1781 49.1709 12.7522 49.4026 12.365C49.6353 11.9583 49.9836 11.6389 50.4485 11.4064C50.9325 11.1742 51.5231 11.058 52.2202 11.058C52.9556 11.058 53.5658 11.1934 54.0499 11.4647C54.1564 11.5219 54.2576 11.5832 54.3526 11.6483L54.3757 11.6644C54.4112 11.6889 54.4462 11.7144 54.4802 11.7401C54.7743 11.9649 55.0084 12.2312 55.1826 12.5392C55.434 12.9652 55.5606 13.4395 55.5606 13.9624H60.207C60.207 12.5682 59.8874 11.358 59.2489 10.3319C58.6099 9.28637 57.6902 8.48285 56.4899 7.92116C55.3083 7.34029 53.8854 7.0498 52.2202 7.0498C50.6322 7.0498 49.2577 7.3211 48.0958 7.86316C46.9343 8.38604 46.0243 9.14115 45.3661 10.1285C44.7266 11.116 44.407 12.2876 44.407 13.643C44.407 15.521 45.0369 17.0312 46.2953 18.1738C47.5537 19.3161 49.2385 19.9744 51.3489 20.1486L52.9465 20.2938C54.2432 20.4101 55.1826 20.6715 55.7636 21.0779C56.3441 21.4652 56.6348 21.9977 56.6348 22.6754C56.6348 22.9869 56.5839 23.2789 56.4817 23.5518C56.4059 23.7543 56.3023 23.9463 56.1704 24.1278C55.86 24.5341 55.4052 24.8536 54.805 25.0863C54.2049 25.3185 53.4593 25.4346 52.5685 25.4346C51.5811 25.4346 50.7776 25.2993 50.1582 25.0278C49.5384 24.7375 49.074 24.36 48.7636 23.8954C48.4734 23.4304 48.3285 22.9272 48.3285 22.3849H43.7104C43.7104 23.7597 44.0492 24.9793 44.7266 26.0443C45.4044 27.0902 46.4018 27.9225 47.7187 28.5424Z" fill="white"/>
<path d="M78.9104 29.0944C77.3033 29.0944 76.0061 28.9005 75.0188 28.5134C74.031 28.1066 73.3051 27.4388 72.8402 26.5095C72.395 25.5606 72.1724 24.283 72.1724 22.6757V16.3732H69.7617V12.9751H72.1724V8.67676H76.4997V12.9751H81.147V16.3732H76.4997V22.8501C76.4997 23.6052 76.6935 24.1861 77.0807 24.5924C77.487 24.9796 78.0584 25.1734 78.7944 25.1734H81.147V29.0944H78.9104Z" fill="white"/>
<path fill-rule="evenodd" clip-rule="evenodd" d="M86.742 28.7454C87.7874 29.2098 88.9882 29.4425 90.3434 29.4425C91.679 29.4425 92.8607 29.2098 93.8868 28.7454C94.913 28.2805 95.765 27.6319 96.4424 26.7996C97.1203 25.9667 97.5756 25.0178 97.8073 23.953H93.5381C93.3447 24.4368 92.9768 24.8436 92.4346 25.1727C91.8925 25.5018 91.195 25.6664 90.3434 25.6664C89.8157 25.6664 89.3441 25.604 88.9287 25.4793C88.6125 25.3843 88.329 25.2533 88.0781 25.0859C87.4971 24.6983 87.0711 24.1562 86.8 23.4593C86.7247 23.2608 86.6604 23.0531 86.6062 22.8368C86.5511 22.6177 86.5064 22.3897 86.4729 22.1523H98.098V20.5839C98.098 19.1317 97.7881 17.7957 97.1688 16.576C96.5489 15.3366 95.6485 14.3394 94.4678 13.5844C93.3059 12.8099 91.8729 12.4226 90.1688 12.4226C88.8716 12.4226 87.7096 12.655 86.6835 13.1197C85.6774 13.5649 84.835 14.1748 84.1571 14.9493C83.4797 15.7238 82.9568 16.605 82.5884 17.5925C82.2401 18.5604 82.0659 19.5769 82.0659 20.6419V21.2228C82.0659 22.2491 82.2401 23.2559 82.5884 24.2435C82.9568 25.2116 83.4797 26.0924 84.1571 26.8864C84.8542 27.6607 85.7153 28.2805 86.742 28.7454ZM86.553 19.2804C86.5659 19.2189 86.5794 19.1584 86.5942 19.0987C86.6345 18.9346 86.6811 18.7772 86.7338 18.6268C86.7636 18.5412 86.7952 18.4578 86.8293 18.3766C87.1195 17.6601 87.5456 17.118 88.1069 16.7502C88.317 16.6127 88.5444 16.5009 88.7886 16.4149C89.1992 16.2705 89.6598 16.1983 90.1688 16.1983C90.9633 16.1983 91.621 16.3823 92.1439 16.7502C92.686 17.0986 93.0929 17.6117 93.3639 18.2894C93.386 18.3441 93.4066 18.3997 93.4268 18.4561C93.4589 18.5459 93.4886 18.638 93.5165 18.7325C93.5572 18.8731 93.5932 19.0185 93.6249 19.1689C93.6479 19.2797 93.6676 19.3932 93.6853 19.5094H86.5084C86.5218 19.4317 86.5367 19.3555 86.553 19.2804Z" fill="white"/>
<path d="M100.016 28.8909V12.9751H103.705V16.9838C103.755 16.7455 103.812 16.5168 103.876 16.2974C103.93 16.1127 103.989 15.9345 104.053 15.7633C104.46 14.6789 105.07 13.8658 105.883 13.3235C106.696 12.7621 107.693 12.4814 108.875 12.4814H109.078C110.278 12.4814 111.275 12.7621 112.069 13.3235C112.882 13.8658 113.493 14.6789 113.899 15.7633L113.931 15.8451L113.958 15.92C113.977 15.8671 113.996 15.815 114.015 15.7633C114.441 14.6789 115.061 13.8658 115.874 13.3235C116.687 12.7621 117.685 12.4814 118.866 12.4814H119.069C120.269 12.4814 121.276 12.7621 122.089 13.3235C122.922 13.8658 123.551 14.6789 123.977 15.7633C124.403 16.8477 124.616 18.203 124.616 19.8295V28.8909H119.969V19.568C119.969 18.6967 119.737 17.99 119.272 17.448C118.827 16.9057 118.188 16.6346 117.356 16.6346C116.523 16.6346 115.864 16.9155 115.38 17.4769C114.896 18.019 114.654 18.7451 114.654 19.6553V28.8909H109.978V19.568C109.978 18.6967 109.746 17.99 109.281 17.448C108.836 16.9057 108.206 16.6346 107.394 16.6346C106.541 16.6346 105.873 16.9155 105.389 17.4769C104.905 18.019 104.663 18.7451 104.663 19.6553V28.8909H100.016Z" fill="white"/>
<path fill-rule="evenodd" clip-rule="evenodd" d="M137.029 25.8248V28.8913H140.717V19.1328C140.717 17.6611 140.427 16.4608 139.846 15.5313C139.265 14.5825 138.413 13.8759 137.29 13.4112C136.187 12.9465 134.822 12.7141 133.195 12.7141C132.843 12.7141 132.475 12.7179 132.091 12.7255C131.864 12.7302 131.632 12.7361 131.394 12.7431C130.755 12.7625 130.135 12.7915 129.536 12.8303L129.077 12.8612C128.842 12.8776 128.62 12.8937 128.412 12.91C128.256 12.9222 128.108 12.9344 127.967 12.9465V16.8675C128.568 16.8286 129.235 16.7898 129.971 16.7513C130.177 16.7405 130.381 16.7304 130.584 16.7211C130.876 16.7075 131.165 16.6959 131.45 16.6855C131.675 16.6774 131.899 16.6701 132.121 16.664C132.817 16.6446 133.379 16.635 133.805 16.635C134.657 16.635 135.276 16.8382 135.664 17.2449C136.051 17.6516 136.245 18.2614 136.245 19.0748V19.1328H133.369C131.956 19.1328 130.707 19.3168 129.623 19.6847C128.538 20.0331 127.696 20.585 127.096 21.3401C126.496 22.076 126.196 23.0247 126.196 24.1865C126.196 25.2515 126.438 26.1712 126.922 26.9455C127.406 27.7006 128.074 28.2816 128.926 28.6879C129.797 29.0948 130.804 29.2982 131.946 29.2982C133.05 29.2982 133.979 29.0948 134.735 28.6879C135.509 28.2816 136.109 27.7006 136.535 26.9455C136.61 26.8184 136.68 26.6864 136.745 26.5492C136.837 26.3554 136.92 26.151 136.992 25.9376L137.029 25.8248ZM136.245 22.9957V21.7177H133.34C132.527 21.7177 131.898 21.9209 131.453 22.3276C131.027 22.7149 130.813 23.2473 130.813 23.925C130.813 24.2441 130.867 24.5338 130.973 24.7953C131.08 25.0572 131.239 25.2899 131.453 25.4933C131.898 25.881 132.527 26.0743 133.34 26.0743C133.495 26.0743 133.645 26.0666 133.789 26.0513C133.907 26.0393 134.022 26.0215 134.133 25.999C134.346 25.9553 134.547 25.8934 134.735 25.8128C135.161 25.6195 135.509 25.3 135.78 24.8543C136.051 24.4091 136.206 23.7894 136.245 22.9957Z" fill="white"/>
<path d="M143.499 28.8905V12.9747H147.187V18.2281C147.364 16.7285 147.81 15.5192 148.523 14.6011C149.492 13.3814 150.885 12.7715 152.706 12.7715H153.316V16.7794H152.154C150.876 16.7794 149.888 17.1279 149.191 17.825C148.494 18.5027 148.145 19.4902 148.145 20.7873V28.8905H143.499Z" fill="white"/>
<path d="M159.208 21.4564H160.748L165.772 28.8914H171L164.629 19.7603L169.867 12.9756H164.988L159.208 20.5435V7.6897H154.562V28.8914H159.208V21.4564Z" fill="white"/>
</svg>
