<svg width="138" height="36" viewBox="0 0 138 36" fill="none" xmlns="http://www.w3.org/2000/svg">
<path d="M54.0224 29.2757C51.8315 29.2757 49.9834 28.9641 48.4785 28.3408C46.9959 27.7176 45.8784 26.8383 45.1259 25.7031C44.3735 24.5457 43.9973 23.1879 43.9973 21.6297V21.4294H47.5825V21.9636C47.5825 22.854 47.7813 23.5996 48.1798 24.2006C48.5783 24.7794 49.2421 25.2246 50.1715 25.5362C51.1013 25.8256 52.3847 25.9702 54.0224 25.9702C55.4389 25.9702 56.5676 25.8701 57.4083 25.6698C58.2495 25.4471 58.8468 25.1133 59.2011 24.6681C59.5774 24.2006 59.7655 23.6219 59.7655 22.9319C59.7655 21.9525 59.4557 21.2402 58.8357 20.795C58.216 20.3498 57.2091 19.9937 55.8152 19.7265L50.3707 18.8251C49.1315 18.5802 48.0251 18.2241 47.0512 17.7566C46.0776 17.2669 45.314 16.6214 44.7605 15.8201C44.2295 14.9965 43.9639 13.9726 43.9639 12.7483C43.9639 11.947 44.1408 11.1568 44.4952 10.3777C44.8491 9.59867 45.4023 8.89751 46.1548 8.27427C46.9072 7.65103 47.8812 7.16131 49.0762 6.80515C50.2932 6.42675 51.7762 6.23755 53.5244 6.23755C55.6931 6.23755 57.4747 6.57143 58.8691 7.23923C60.2634 7.90699 61.2922 8.81963 61.9564 9.97707C62.6424 11.1123 62.9852 12.4145 62.9852 13.8835V14.0839H59.4334V13.6498C59.4334 12.7372 59.2341 11.9804 58.8357 11.3794C58.4376 10.7561 57.7846 10.2998 56.8774 10.0105C55.9699 9.69883 54.7418 9.54303 53.1924 9.54303C51.8426 9.54303 50.7469 9.65431 49.9062 9.87691C49.0874 10.0995 48.4896 10.4334 48.1134 10.8786C47.7372 11.3015 47.5491 11.858 47.5491 12.548C47.5491 13.1713 47.6819 13.6832 47.9476 14.0839C48.2132 14.4845 48.6225 14.8073 49.1757 15.0521C49.7288 15.2747 50.4371 15.4862 51.3001 15.6865L56.7112 16.6214C58.1942 16.8885 59.4223 17.2892 60.3962 17.8234C61.392 18.3576 62.1333 19.0365 62.6201 19.8601C63.1069 20.6837 63.3507 21.6408 63.3507 22.7316C63.3507 23.8667 63.0297 24.9352 62.3879 25.9369C61.746 26.9385 60.739 27.7509 59.367 28.3742C57.9949 28.9752 56.2133 29.2757 54.0224 29.2757ZM73.7965 28.9418H69.3483L64.4018 12.3477H68.1198L70.8751 21.7633L71.6386 26.037H71.9043L73.1324 21.4294L76.5848 12.3477H81.1658L84.6516 21.4294L85.8797 26.037H86.1453L86.9089 21.7633L89.6641 12.3477H93.3158L88.3032 28.9418H83.855L80.2364 19.3927L78.9749 15.3193H78.7096L77.4482 19.3927L73.7965 28.9418ZM98.722 28.9418H95.1368V12.3477H98.722V28.9418ZM98.722 10.4111H95.1368V6.57143H98.722V10.4111ZM109.843 29.2757C107.187 29.2757 105.129 28.7638 103.669 27.7398C102.23 26.7159 101.511 25.2468 101.511 23.3325V23.2324H105.096V23.4995C105.096 24.5902 105.45 25.347 106.158 25.7699C106.889 26.1706 108.117 26.3709 109.843 26.3709C111.459 26.3709 112.554 26.204 113.129 25.8701C113.727 25.5139 114.026 24.9686 114.026 24.234C114.026 23.544 113.793 23.0543 113.329 22.7649C112.886 22.4755 112.067 22.253 110.872 22.0971L106.357 21.4961C104.786 21.2958 103.558 20.8506 102.673 20.1606C101.787 19.4483 101.345 18.391 101.345 16.9887C101.345 16.0093 101.633 15.1523 102.208 14.4178C102.783 13.6609 103.646 13.0711 104.797 12.6482C105.948 12.2253 107.364 12.0138 109.046 12.0138C110.728 12.0138 112.167 12.2364 113.362 12.6815C114.579 13.1267 115.509 13.7945 116.15 14.6849C116.814 15.5752 117.146 16.6771 117.146 17.9903V18.0905H113.594V17.8902C113.594 17.2447 113.461 16.6993 113.196 16.2541C112.93 15.8089 112.454 15.4751 111.768 15.2525C111.105 15.0076 110.164 14.8852 108.947 14.8852C107.42 14.8852 106.357 15.0633 105.76 15.4194C105.162 15.7756 104.864 16.3432 104.864 17.1223C104.864 17.7677 105.085 18.2352 105.528 18.5246C105.97 18.8139 106.8 19.0477 108.017 19.2257L111.835 19.7599C113.782 20.0048 115.221 20.4834 116.15 21.1957C117.08 21.9079 117.545 22.9541 117.545 24.3342C117.545 25.3581 117.224 26.2485 116.582 27.0053C115.94 27.7398 115.044 28.3074 113.893 28.7081C112.742 29.0865 111.392 29.2757 109.843 29.2757ZM127.932 29.2757C125.277 29.2757 123.218 28.7638 121.758 27.7398C120.32 26.7159 119.6 25.2468 119.6 23.3325V23.2324H123.185V23.4995C123.185 24.5902 123.539 25.347 124.248 25.7699C124.978 26.1706 126.206 26.3709 127.932 26.3709C129.548 26.3709 130.643 26.204 131.219 25.8701C131.816 25.5139 132.115 24.9686 132.115 24.234C132.115 23.544 131.883 23.0543 131.418 22.7649C130.975 22.4755 130.157 22.253 128.962 22.0971L124.447 21.4961C122.876 21.2958 121.647 20.8506 120.762 20.1606C119.877 19.4483 119.434 18.391 119.434 16.9887C119.434 16.0093 119.722 15.1523 120.297 14.4178C120.873 13.6609 121.736 13.0711 122.887 12.6482C124.037 12.2253 125.454 12.0138 127.136 12.0138C128.818 12.0138 130.256 12.2364 131.451 12.6815C132.668 13.1267 133.598 13.7945 134.24 14.6849C134.903 15.5752 135.236 16.6771 135.236 17.9903V18.0905H131.684V17.8902C131.684 17.2447 131.551 16.6993 131.285 16.2541C131.02 15.8089 130.544 15.4751 129.858 15.2525C129.194 15.0076 128.253 14.8852 127.036 14.8852C125.509 14.8852 124.447 15.0633 123.849 15.4194C123.252 15.7756 122.953 16.3432 122.953 17.1223C122.953 17.7677 123.174 18.2352 123.617 18.5246C124.06 18.8139 124.89 19.0477 126.106 19.2257L129.924 19.7599C131.872 20.0048 133.31 20.4834 134.24 21.1957C135.169 21.9079 135.634 22.9541 135.634 24.3342C135.634 25.3581 135.313 26.2485 134.671 27.0053C134.029 27.7398 133.133 28.3074 131.982 28.7081C130.831 29.0865 129.482 29.2757 127.932 29.2757Z" fill="white"/>
<path d="M21.4875 0.000488281H14.0625V14.1445L21.4875 7.07254V0.000488281Z" fill="white"/>
<path d="M3.24558e-07 21.6121L0 14.144H14.0626L7.03128 21.6121H3.24558e-07Z" fill="white"/>
<path d="M35.5498 14.1448V21.6128H21.4873L28.5186 14.1448H35.5498Z" fill="white"/>
<path d="M21.5174 14.1147H14.0332V35.7567H21.5174V14.1147Z" fill="white"/>
</svg>
