<svg width="142" height="34" viewBox="0 0 142 34" fill="none" xmlns="http://www.w3.org/2000/svg">
<g clip-path="url(#clip0_8451_8472)">
<path d="M72.1851 5.28942C69.6417 6.7654 67.2513 8.52127 65.0132 10.557C62.775 12.542 60.5876 14.5777 58.4515 16.6644C57.2306 17.835 56.0352 19.031 54.8653 20.2525C53.6954 21.474 52.5255 22.6955 51.3557 23.917C50.745 24.6295 50.0837 25.342 49.3718 26.0545C48.7106 26.7162 48.0493 27.4287 47.388 28.1921C48.4563 27.9376 49.499 27.6323 50.5162 27.276C51.5844 26.9197 52.551 26.6144 53.4156 26.3599C54.1785 26.2072 54.9925 26.0037 55.857 25.7491C56.722 25.4947 57.5865 25.2911 58.4515 25.1384C59.316 24.9348 60.1806 24.8331 61.0455 24.8331C61.9611 24.7821 62.8002 24.9094 63.5635 25.2148C64.5297 25.571 65.1148 26.1818 65.3181 27.047C65.4708 27.6068 65.4197 28.1412 65.1654 28.6502C66.0304 28.3957 66.8694 28.1158 67.6834 27.8104C68.5483 27.505 69.3619 27.2251 70.1252 26.9706C71.6 26.5126 73.0752 26.0545 74.5504 25.5965C76.0256 25.0875 77.5259 24.6804 79.0521 24.375C79.4591 24.2732 79.9422 24.2223 80.5018 24.2223C81.1121 24.1714 81.6462 24.2223 82.1038 24.375C82.5618 24.5277 82.8922 24.8076 83.0959 25.2148C83.3502 25.571 83.3757 26.1054 83.172 26.818C83.0194 27.276 82.7144 27.6577 82.2564 27.9631C81.7989 28.2175 81.2647 28.4211 80.6541 28.5738C80.0438 28.7265 79.4336 28.8538 78.8229 28.9555C78.2127 29.0064 77.7296 29.0828 77.3732 29.1846C75.6441 29.6935 73.9401 30.2279 72.2612 30.7878C70.5828 31.2967 68.9043 31.8056 67.2258 32.3146C66.3608 32.569 65.4197 32.8236 64.4025 33.078C63.3853 33.3834 62.4187 33.4343 61.5031 33.2307C61.1472 33.1798 60.7657 33.0271 60.3588 32.7726C59.4942 32.111 59.0872 31.5003 59.1379 30.9405C59.1889 30.3806 59.4177 29.8208 59.8246 29.2609H58.9091C57.0779 29.5663 55.2468 29.948 53.4156 30.406C51.9404 30.8132 50.4401 31.2712 48.9139 31.7802C47.4387 32.2892 45.9128 32.62 44.336 32.7726C43.7764 32.8235 43.2171 32.7217 42.6575 32.4673C42.0979 32.2637 41.6909 31.8311 41.4366 31.1695C41.2333 30.6096 41.2333 30.0752 41.4366 29.5663C41.6403 29.0064 41.9197 28.472 42.276 27.9631C40.8008 28.8283 39.4021 29.5663 38.0796 30.177C36.8078 30.7369 35.8414 31.144 35.1801 31.3985C33.8576 31.9583 32.4334 32.5436 30.9074 33.1543C29.3814 33.7651 27.8555 34.045 26.3295 33.9941C24.6509 33.8923 23.6336 33.4343 23.2775 32.62C22.9215 31.8056 22.9978 30.7878 23.5064 29.5663C23.9642 28.2939 24.7018 26.9452 25.7191 25.5201C26.7364 24.0442 27.8046 22.6446 28.9236 21.3213C30.0936 19.998 31.1617 18.8529 32.1282 17.8859C33.0946 16.868 33.7305 16.2064 34.0356 15.901L35.1038 14.8322C33.6287 14.8322 32.1791 14.8322 30.7548 14.8322C29.3306 14.8322 27.8809 14.8577 26.4058 14.9085C23.4555 15.0104 20.5308 15.163 17.6314 15.3666C14.6812 15.5193 11.731 15.7483 8.78074 16.0537C7.71254 16.2064 6.66981 16.3591 5.65248 16.5118C4.58428 16.6135 3.51611 16.7917 2.44792 17.0461C2.19359 17.097 1.91383 17.1734 1.60864 17.2752C1.30344 17.3769 1.02368 17.3769 0.769347 17.2752C0.209821 17.0716 -0.0445084 16.7153 0.00635846 16.2064C0.00635846 15.6465 0.260688 15.2903 0.769347 15.1376C6.87326 13.5598 13.1552 12.5674 19.6152 12.1603C26.0752 11.7022 32.4588 11.4223 38.7664 11.3205C40.0885 10.099 41.4111 8.90298 42.7336 7.73239C44.0562 6.56181 45.4042 5.39123 46.7774 4.22065C47.4387 3.6099 48.202 2.84648 49.0665 1.93037C49.9821 0.963367 50.8977 0.352629 51.8132 0.0981553C52.3219 -0.0545304 52.7543 -0.0290831 53.1103 0.174497C53.5172 0.327181 53.8226 0.607104 54.0259 1.01426C54.2295 1.37052 54.3057 1.77769 54.255 2.23574C54.204 2.69379 54.0004 3.10095 53.6444 3.45721C52.0676 4.78048 50.5162 6.10376 48.9904 7.427C47.4642 8.69939 45.9638 10.0226 44.4886 11.3968C45.2516 11.3968 45.9638 11.4986 46.6251 11.7022C47.2354 11.8549 47.7695 12.1093 48.2271 12.4656C48.7361 12.8219 49.092 13.3563 49.2953 14.0688C49.448 14.6795 49.3718 15.2139 49.0665 15.672C48.7612 16.0791 48.3797 16.3845 47.9221 16.5881C47.4642 16.7408 46.9811 16.7662 46.4725 16.6644C46.0145 16.5118 45.6585 16.1809 45.4042 15.672C44.7429 15.4175 43.98 15.2394 43.1151 15.1376C42.2505 14.9849 41.4366 14.9085 40.6737 14.9085L39.9108 15.5956C37.8252 17.5805 35.6125 19.7181 33.2727 22.0084C30.9837 24.2987 29.178 26.7671 27.8555 29.4136C29.6357 29.0573 31.4669 28.5484 33.349 27.8867C35.231 27.2251 37.0876 26.4871 38.9187 25.6728C40.7498 24.8585 42.5558 23.9933 44.336 23.0772C46.1165 22.1102 47.7695 21.1177 49.2953 20.0998C51.2285 18.1149 53.1868 16.1809 55.1706 14.2978C57.2051 12.3638 59.265 10.5062 61.3509 8.72482C62.6224 7.60516 63.9194 6.51092 65.242 5.44212C66.5645 4.37331 67.9125 3.38087 69.2857 2.46477C69.8453 2.05761 70.4556 1.80313 71.1169 1.70134C71.8292 1.54866 72.4139 1.82858 72.8719 2.54111C73.1262 2.99916 73.1768 3.50811 73.0245 4.06795C72.9225 4.57689 72.6427 4.98406 72.1851 5.28942Z" fill="white"/>
<path d="M116.814 28.2687C115.644 28.3705 114.474 28.574 113.304 28.8794C112.185 29.1339 111.041 29.3883 109.871 29.6428C106.819 30.3554 103.792 31.0424 100.791 31.7041C97.79 32.3148 94.738 32.7729 91.6353 33.0783C90.8214 33.18 89.9564 33.2564 89.0408 33.3073C88.1763 33.3581 87.2862 33.3327 86.3706 33.2309C85.5057 33.1291 84.6666 32.9256 83.8527 32.6202C83.0388 32.3657 82.3014 31.9586 81.6401 31.3987C81.0805 30.9407 80.648 30.4063 80.3431 29.7955C79.9867 29.1848 79.7834 28.5486 79.7324 27.8869C79.6308 27.2253 79.6818 26.5891 79.8851 25.9784C80.0887 25.3168 80.4702 24.7315 81.0294 24.2225C81.3858 23.8663 81.945 23.5864 82.7083 23.3828C83.5219 23.1283 84.4123 22.9502 85.3785 22.8484C86.3451 22.7466 87.3117 22.7211 88.2779 22.772C89.2445 22.8229 90.0836 23.0011 90.7959 23.3064C91.5081 23.6118 91.9912 24.0444 92.2455 24.6042C92.5509 25.1132 92.5254 25.7748 92.1694 26.5891C91.8641 27.1999 91.4061 27.6325 90.7959 27.8869C90.1856 28.1415 89.4988 28.3196 88.7359 28.4213C87.9726 28.4722 87.1842 28.4722 86.3706 28.4213C85.5567 28.3196 84.8444 28.2178 84.2342 28.116C84.4374 28.3196 84.8444 28.4977 85.4551 28.6504C86.0653 28.7522 86.7011 28.8285 87.3623 28.8794C88.0746 28.9303 88.7104 28.9558 89.27 28.9558C89.8803 28.9558 90.2617 28.9558 90.4144 28.9558C92.9068 28.7522 95.3737 28.3959 97.8155 27.8869C100.308 27.378 102.775 26.8436 105.216 26.2838C106.997 25.8766 108.751 25.4695 110.481 25.0623C112.261 24.6042 114.042 24.2734 115.822 24.0698C116.585 24.019 117.221 24.1971 117.729 24.6042C118.238 25.0114 118.568 25.4949 118.721 26.0548C118.874 26.5637 118.798 27.0472 118.492 27.5052C118.238 27.9633 117.678 28.2178 116.814 28.2687Z" fill="white"/>
<path d="M139.842 28.2683C137.248 28.3192 134.603 28.3955 131.907 28.4973C129.211 28.5482 126.566 28.2428 123.972 27.5812C123.768 27.5812 123.565 27.5303 123.361 27.4285C123.056 28.2937 122.598 29.1335 121.988 29.9478C121.429 30.7112 120.792 31.3729 120.08 31.9327C119.368 32.4926 118.58 32.8997 117.715 33.1542C116.901 33.4087 116.087 33.4341 115.273 33.2305C114.51 33.0269 113.951 32.6452 113.595 32.0854C113.188 31.5256 112.959 30.8894 112.908 30.1768C112.857 29.4643 112.959 28.7518 113.213 28.0392C113.417 27.3267 113.722 26.6905 114.129 26.1307C114.79 25.3164 115.63 24.7056 116.647 24.2985C117.664 23.8913 118.681 23.8404 119.699 24.1458C119.801 23.4333 120.208 22.8734 120.92 22.4663C121.632 22.0591 122.395 22.11 123.209 22.619C123.972 23.077 124.785 23.4333 125.65 23.6877C126.566 23.8913 127.507 24.0186 128.473 24.0694C129.44 24.1203 130.381 24.1458 131.296 24.1458C132.263 24.0949 133.178 24.0694 134.043 24.0694C135.061 24.0694 136.154 24.0186 137.324 23.9168C138.494 23.7641 139.562 23.8404 140.528 24.1458C141.088 24.3494 141.47 24.6802 141.673 25.1383C141.927 25.5963 142.004 26.0544 141.902 26.5124C141.851 26.9705 141.648 27.3776 141.291 27.7339C140.935 28.0901 140.452 28.2683 139.842 28.2683ZM117.028 29.2607C117.181 29.1081 117.486 29.0317 117.944 29.0317V28.3446C117.842 28.4464 117.69 28.5737 117.486 28.7264C117.283 28.8281 117.13 29.0062 117.028 29.2607Z" fill="white"/>
</g>
<defs>
<clipPath id="clip0_8451_8472">
<rect width="142" height="34" fill="white"/>
</clipPath>
</defs>
</svg>
