<svg width="146" height="30" viewBox="0 0 146 30" fill="none" xmlns="http://www.w3.org/2000/svg">
<path d="M118.006 1.37891V28.2755H121.943V1.37891H118.006Z" fill="white"/>
<path fill-rule="evenodd" clip-rule="evenodd" d="M82.4117 28.71C80.8583 28.71 79.5607 28.3483 78.5186 27.6245C78.4045 27.5455 78.2938 27.4631 78.1858 27.3776V28.2759H74.7124V1.81348H78.6779V13.1499C79.6507 12.5244 80.8276 12.2117 82.209 12.2117C83.7045 12.2117 85.0069 12.5687 86.1165 13.2826C87.2262 13.9966 88.0848 14.9759 88.6924 16.2205C89.31 17.4555 89.6186 18.869 89.6186 20.4607C89.6186 22.0238 89.3148 23.4276 88.7069 24.6724C88.109 25.9169 87.2693 26.901 86.189 27.6245C85.1083 28.3483 83.8493 28.71 82.4117 28.71ZM78.5331 17.9717C78.3014 18.6855 78.1858 19.5152 78.1858 20.4607C78.1858 21.4062 78.3014 22.2362 78.5331 22.95C78.7645 23.6641 79.141 24.2186 79.6617 24.6145C80.1924 25.01 80.8969 25.2076 81.7748 25.2076C82.6238 25.2076 83.3186 24.9955 83.859 24.571C84.3993 24.1465 84.7996 23.5772 85.06 22.8631C85.3207 22.1396 85.4507 21.339 85.4507 20.4607C85.4507 19.5924 85.3159 18.8014 85.0455 18.0876C84.7755 17.3638 84.3559 16.7897 83.7865 16.3652C83.2269 15.9311 82.5079 15.714 81.63 15.714C80.81 15.714 80.1441 15.9118 79.6331 16.3073C79.1314 16.7029 78.7645 17.2576 78.5331 17.9717Z" fill="white"/>
<path d="M68.4892 19.0424V28.2758H72.4255V18.0006C72.4255 16.2928 71.9672 14.9131 71.0506 13.8615C70.1437 12.8002 68.7979 12.2695 67.013 12.2695C65.971 12.2695 65.0206 12.5011 64.162 12.9642C63.3758 13.3841 62.7344 13.9611 62.2379 14.6954C61.8675 14.029 61.3558 13.4809 60.703 13.051C59.9217 12.53 58.9182 12.2695 57.693 12.2695C56.622 12.2695 55.6523 12.5059 54.7841 12.9787C54.1279 13.3399 53.573 13.7998 53.1196 14.3583V12.6458H49.6465V28.2758H53.6117V18.811C53.6117 17.9137 53.8579 17.1853 54.3499 16.6257C54.8517 16.0564 55.5123 15.7718 56.3323 15.7718C57.1913 15.7718 57.8617 16.0613 58.3441 16.6402C58.8361 17.2094 59.0824 18.0103 59.0824 19.0424V28.2758H63.0186V18.811C63.0186 18.2127 63.1296 17.6868 63.3517 17.2335C63.583 16.7704 63.9013 16.4134 64.3068 16.1626C64.712 15.902 65.1896 15.7718 65.7396 15.7718C66.5982 15.7718 67.2686 16.0613 67.751 16.6402C68.243 17.2094 68.4892 18.0103 68.4892 19.0424Z" fill="white"/>
<path d="M35.5435 28.1162C36.3152 28.531 37.3139 28.7386 38.5394 28.7386C40.0732 28.7386 41.3421 28.4059 42.3456 27.74C42.8218 27.4272 43.2414 27.0683 43.6045 26.6638V28.2755H47.078V12.6455H43.1125V20.5762C43.1125 21.541 43.0014 22.3224 42.7797 22.9207C42.5673 23.5093 42.2925 23.9579 41.9545 24.2665C41.617 24.5659 41.2552 24.7683 40.8694 24.8745C40.4835 24.9807 40.1214 25.0338 39.7839 25.0338C38.9445 25.0338 38.2932 24.8455 37.8301 24.4693C37.3766 24.0931 37.0487 23.6252 36.8459 23.0655C36.6435 22.5059 36.5228 21.951 36.4842 21.401C36.4456 20.8417 36.4263 20.3834 36.4263 20.0262V12.6455H32.4321V21.4155C32.4321 21.6762 32.4511 22.091 32.4897 22.6603C32.5283 23.2296 32.6394 23.8614 32.8228 24.5562C33.0059 25.241 33.3101 25.9021 33.7345 26.539C34.1687 27.1755 34.7718 27.7014 35.5435 28.1162Z" fill="white"/>
<path d="M91.3564 12.6459V28.2759H95.3216V20.2872C95.3216 19.689 95.4037 19.1534 95.5678 18.6807C95.732 18.1983 95.973 17.7834 96.2913 17.4362C96.6099 17.0792 97.0006 16.7945 97.4637 16.5823C97.9268 16.3604 98.443 16.2301 99.0123 16.1915C99.5909 16.1433 100.097 16.1867 100.532 16.3218V12.6459C100.059 12.588 99.5861 12.5783 99.1133 12.6169C98.6406 12.6459 98.1823 12.7279 97.7385 12.8629C97.2947 12.9884 96.8847 13.1669 96.5085 13.3984C96.0164 13.6879 95.6016 14.0545 95.264 14.4983C95.104 14.7084 94.9592 14.9293 94.8296 15.161V12.6459H91.3564Z" fill="white"/>
<path fill-rule="evenodd" clip-rule="evenodd" d="M108.82 28.7102C107.218 28.7102 105.805 28.3678 104.58 27.6826C103.364 26.9882 102.409 26.0378 101.714 24.8316C101.029 23.6161 100.687 22.2268 100.687 20.6637C100.687 18.9561 101.024 17.4702 101.7 16.2063C102.375 14.9423 103.306 13.9631 104.493 13.2684C105.679 12.5641 107.045 12.2119 108.588 12.2119C110.229 12.2119 111.623 12.5978 112.771 13.3697C113.919 14.1415 114.768 15.2269 115.318 16.6259C115.868 18.0251 116.061 19.6699 115.897 21.5609H104.922C105.045 22.4992 105.336 23.2613 105.795 23.8475C106.432 24.6388 107.363 25.0344 108.588 25.0344C109.36 25.0344 110.021 24.8654 110.571 24.5278C111.121 24.1902 111.541 23.703 111.83 23.0661L115.767 24.1951C115.178 25.623 114.247 26.7323 112.973 27.5233C111.71 28.3147 110.325 28.7102 108.82 28.7102ZM111.237 16.6838C111.573 17.1409 111.799 17.7923 111.914 18.6375H105.025C105.179 17.9157 105.435 17.3223 105.795 16.8575C106.432 16.0374 107.421 15.6274 108.762 15.6274C109.91 15.6274 110.735 15.9795 111.237 16.6838Z" fill="white"/>
<path d="M125.124 28.2755V1.37891H129.061V28.2755H125.124Z" fill="white"/>
<path fill-rule="evenodd" clip-rule="evenodd" d="M133.443 28.0733C134.225 28.4978 135.175 28.7102 136.294 28.7102C137.645 28.7102 138.759 28.4785 139.637 28.0154C140.337 27.6426 140.998 27.0902 141.62 26.3575V28.2761H145.064V18.7244C145.064 18.0106 145.035 17.364 144.977 16.7852C144.919 16.2063 144.736 15.6274 144.427 15.0485C143.877 14.0065 143.067 13.2732 141.996 12.8487C140.925 12.4242 139.7 12.2119 138.32 12.2119C136.439 12.2119 134.953 12.6172 133.863 13.4276C132.773 14.238 132.03 15.2897 131.634 16.5825L135.194 17.7113C135.445 16.9974 135.884 16.5005 136.511 16.2207C137.138 15.9409 137.741 15.801 138.32 15.801C139.362 15.801 140.105 16.0181 140.549 16.4523C140.897 16.7932 141.109 17.2857 141.184 17.9302C140.517 18.0313 139.886 18.1271 139.29 18.2178C138.277 18.3626 137.37 18.5171 136.569 18.6809C135.768 18.8451 135.078 19.0333 134.5 19.2454C133.66 19.554 132.989 19.9402 132.488 20.4033C131.996 20.8568 131.639 21.3823 131.417 21.9806C131.195 22.5788 131.084 23.2399 131.084 23.9633C131.084 24.8316 131.282 25.6275 131.677 26.3513C132.083 27.0651 132.671 27.6392 133.443 28.0733ZM138.957 25.2368C138.465 25.4878 137.857 25.6133 137.133 25.6133C136.68 25.6133 136.289 25.5457 135.961 25.4106C135.633 25.2754 135.377 25.0826 135.194 24.8316C135.021 24.5713 134.934 24.2623 134.934 23.9054C134.934 23.6451 134.987 23.4085 135.093 23.1964C135.208 22.984 135.382 22.7913 135.614 22.6175C135.855 22.434 136.168 22.2654 136.555 22.1109C136.892 21.9854 137.283 21.8695 137.727 21.7637C138.171 21.6575 138.754 21.5416 139.478 21.4161C139.943 21.3295 140.5 21.2306 141.148 21.1199C141.139 21.3951 141.122 21.7061 141.099 22.053C141.07 22.6126 140.954 23.1047 140.752 23.5292C140.645 23.7509 140.443 24.0261 140.144 24.354C139.854 24.6819 139.459 24.9764 138.957 25.2368Z" fill="white"/>
<path fill-rule="evenodd" clip-rule="evenodd" d="M10.7072 12.7586H0.0175781V17.4138C0.0175781 24.3648 5.65261 30 12.6038 30C19.555 30 25.1902 24.3648 25.1902 17.4138V12.7586H14.1555V5.34483C14.1555 2.39297 11.7625 0 8.81068 0C5.85882 0 3.46585 2.39297 3.46585 5.34483H6.91413C6.91413 4.29738 7.76327 3.44828 8.81068 3.44828C9.85813 3.44828 10.7072 4.29738 10.7072 5.34483V12.7586ZM10.7072 16.2069V22.7586H14.1555V16.2069H21.7419V17.4138C21.7419 22.4607 17.6505 26.5517 12.6038 26.5517C7.55706 26.5517 3.46585 22.4607 3.46585 17.4138V16.2069H10.7072Z" fill="white"/>
</svg>
