<svg width="11" height="12" viewBox="0 0 11 12" fill="none" xmlns="http://www.w3.org/2000/svg">
<mask id="path-1-inside-1_7786_9444" fill="white">
<path d="M10.2101 10.7758L6.52432 5.06744L10.6102 0H9.67553L8.87532 0.987639L6.10749 4.42184L3.47087 0.338288L3.25248 0H0.0126224L0.802845 1.22422L4.30836 6.65436L0 12H0.934646L4.7249 7.29901L7.54175 11.662L7.76015 12H11L10.2101 10.7758ZM8.14528 11.2189L5.21893 6.68628L4.8021 6.041L1.40667 0.781411H2.86734L5.61345 5.03489L6.03029 5.68018L9.60625 11.2189H8.14528Z"/>
</mask>
<path d="M10.2101 10.7758L11.0503 10.2336L11.0502 10.2333L10.2101 10.7758ZM6.52432 5.06744L5.74585 4.43976L5.29208 5.00254L5.68423 5.60987L6.52432 5.06744ZM10.6102 0L11.3886 0.627678L12.701 -1H10.6102V0ZM9.67553 0V-1H9.19871L8.89854 -0.629523L9.67553 0ZM8.87532 0.987639L8.09834 0.358113L8.09672 0.360118L8.87532 0.987639ZM6.10749 4.42184L5.26739 4.96427L6.01787 6.12661L6.88609 5.04936L6.10749 4.42184ZM3.47087 0.338288L2.63074 0.880672L2.63077 0.880715L3.47087 0.338288ZM3.25248 0L4.09261 -0.542384L3.79717 -1H3.25248V0ZM0.0126224 0V-1H-1.8231L-0.827549 0.542322L0.0126224 0ZM0.802845 1.22422L-0.0373263 1.76654L-0.0372971 1.76659L0.802845 1.22422ZM4.30836 6.65436L5.08696 7.28188L5.54047 6.71917L5.1485 6.11199L4.30836 6.65436ZM0 12L-0.778601 11.3725L-2.09031 13H0V12ZM0.934646 12V13H1.41293L1.71313 12.6277L0.934646 12ZM4.7249 7.29901L5.56502 6.75661L4.81469 5.59444L3.94641 6.67135L4.7249 7.29901ZM7.54175 11.662L6.70163 12.2044L6.70185 12.2048L7.54175 11.662ZM7.76015 12L6.92024 12.5427L7.21572 13H7.76015V12ZM11 12V13H12.8354L11.8403 11.4578L11 12ZM8.14528 11.2189L7.30516 11.7613L7.60059 12.2189H8.14528V11.2189ZM5.21893 6.68628L6.05905 6.14388L6.05892 6.14367L5.21893 6.68628ZM4.8021 6.041L3.96196 6.58336L3.96211 6.5836L4.8021 6.041ZM1.40667 0.781411V-0.218589H-0.429182L0.566526 1.32378L1.40667 0.781411ZM2.86734 0.781411L3.70747 0.239016L3.41203 -0.218589H2.86734V0.781411ZM5.61345 5.03489L4.77333 5.57729L4.77347 5.5775L5.61345 5.03489ZM6.03029 5.68018L6.87041 5.13777L6.87028 5.13757L6.03029 5.68018ZM9.60625 11.2189V12.2189H11.4422L10.4464 10.6765L9.60625 11.2189ZM11.0502 10.2333L7.36442 4.52501L5.68423 5.60987L9.36997 11.3182L11.0502 10.2333ZM7.3028 5.69512L11.3886 0.627678L9.8317 -0.627678L5.74585 4.43976L7.3028 5.69512ZM10.6102 -1H9.67553V1H10.6102V-1ZM8.89854 -0.629523L8.09834 0.358115L9.65231 1.61716L10.4525 0.629523L8.89854 -0.629523ZM8.09672 0.360118L5.32889 3.79432L6.88609 5.04936L9.65392 1.61516L8.09672 0.360118ZM6.94759 3.87942L4.31098 -0.204139L2.63077 0.880715L5.26739 4.96427L6.94759 3.87942ZM4.311 -0.204095L4.09261 -0.542384L2.41234 0.542384L2.63074 0.880672L4.311 -0.204095ZM3.25248 -1H0.0126224V1H3.25248V-1ZM-0.827549 0.542322L-0.0373263 1.76654L1.64302 0.6819L0.852793 -0.542322L-0.827549 0.542322ZM-0.0372971 1.76659L3.46821 7.19672L5.1485 6.11199L1.64299 0.681855L-0.0372971 1.76659ZM3.52975 6.02684L-0.778601 11.3725L0.778601 12.6275L5.08696 7.28188L3.52975 6.02684ZM0 13H0.934646V11H0V13ZM1.71313 12.6277L5.50338 7.92668L3.94641 6.67135L0.156163 11.3723L1.71313 12.6277ZM3.88477 7.84141L6.70163 12.2044L8.38187 11.1196L5.56502 6.75661L3.88477 7.84141ZM6.70185 12.2048L6.92024 12.5427L8.60005 11.4573L8.38165 11.1193L6.70185 12.2048ZM7.76015 13H11V11H7.76015V13ZM11.8403 11.4578L11.0503 10.2336L9.36981 11.318L10.1597 12.5422L11.8403 11.4578ZM8.9854 10.6765L6.05905 6.14388L4.37881 7.22868L7.30516 11.7613L8.9854 10.6765ZM6.05892 6.14367L5.64208 5.49839L3.96211 6.5836L4.37894 7.22888L6.05892 6.14367ZM5.64224 5.49863L2.24681 0.239042L0.566526 1.32378L3.96196 6.58336L5.64224 5.49863ZM1.40667 1.78141H2.86734V-0.218589H1.40667V1.78141ZM2.02722 1.32381L4.77333 5.57729L6.45358 4.4925L3.70747 0.239016L2.02722 1.32381ZM4.77347 5.5775L5.1903 6.22278L6.87028 5.13757L6.45344 4.49229L4.77347 5.5775ZM5.19017 6.22258L8.76613 11.7613L10.4464 10.6765L6.87041 5.13777L5.19017 6.22258ZM9.60625 10.2189H8.14528V12.2189H9.60625V10.2189Z" fill="white" mask="url(#path-1-inside-1_7786_9444)"/>
</svg>
